<svg width="750" height="500" viewBox="0 0 750 500" fill="none" xmlns="http://www.w3.org/2000/svg">
<path d="M673.73 305.46H493C491.447 305.457 489.958 304.839 488.859 303.741C487.761 302.642 487.143 301.153 487.14 299.6V36.32C487.143 34.7666 487.761 33.2777 488.859 32.1793C489.958 31.0809 491.447 30.4626 493 30.46H673.73C675.285 30.46 676.777 31.0771 677.877 32.1757C678.978 33.2744 679.597 34.7649 679.6 36.32V299.6C679.597 301.155 678.978 302.646 677.877 303.744C676.777 304.843 675.285 305.46 673.73 305.46ZM493 30.71C491.512 30.71 490.085 31.301 489.033 32.3531C487.981 33.4052 487.39 34.8321 487.39 36.32V299.6C487.39 301.088 487.981 302.515 489.033 303.567C490.085 304.619 491.512 305.21 493 305.21H673.73C675.219 305.21 676.647 304.619 677.7 303.567C678.754 302.516 679.347 301.089 679.35 299.6V36.32C679.347 34.8312 678.754 33.4043 677.7 32.3525C676.647 31.3007 675.219 30.71 673.73 30.71H493Z" fill="#E0E0E0"/>
<path d="M465.31 305.46H284.56C283.007 305.457 281.518 304.839 280.419 303.741C279.321 302.642 278.703 301.153 278.7 299.6V36.32C278.703 34.7666 279.321 33.2777 280.419 32.1793C281.518 31.0809 283.007 30.4626 284.56 30.46H465.31C466.863 30.4626 468.352 31.0809 469.451 32.1793C470.549 33.2777 471.167 34.7666 471.17 36.32V299.6C471.167 301.153 470.549 302.642 469.451 303.741C468.352 304.839 466.863 305.457 465.31 305.46ZM284.56 30.71C283.082 30.7258 281.669 31.3235 280.628 32.3736C279.588 33.4237 279.002 34.8415 279 36.32V299.6C279.003 301.087 279.594 302.512 280.646 303.564C281.698 304.615 283.123 305.207 284.61 305.21H465.31C466.797 305.207 468.222 304.615 469.274 303.564C470.325 302.512 470.917 301.087 470.92 299.6V36.32C470.917 34.8329 470.325 33.4076 469.274 32.356C468.222 31.3045 466.797 30.7126 465.31 30.71H284.56Z" fill="#E0E0E0"/>
<path d="M257 305.46H76.27C74.7149 305.46 73.2234 304.843 72.1228 303.744C71.0223 302.646 70.4027 301.155 70.4 299.6V36.32C70.4027 34.7649 71.0223 33.2744 72.1228 32.1757C73.2234 31.0771 74.7149 30.46 76.27 30.46H257C258.553 30.4626 260.042 31.0809 261.141 32.1793C262.239 33.2777 262.857 34.7666 262.86 36.32V299.6C262.857 301.153 262.239 302.642 261.141 303.741C260.042 304.839 258.553 305.457 257 305.46ZM76.27 30.71C74.7812 30.71 73.3533 31.3007 72.2996 32.3525C71.2459 33.4043 70.6527 34.8312 70.65 36.32V299.6C70.6527 301.089 71.2459 302.516 72.2996 303.567C73.3533 304.619 74.7812 305.21 76.27 305.21H257C258.488 305.21 259.915 304.619 260.967 303.567C262.019 302.515 262.61 301.088 262.61 299.6V36.32C262.61 34.8321 262.019 33.4052 260.967 32.3531C259.915 31.301 258.488 30.71 257 30.71H76.27Z" fill="#E0E0E0"/>
<path d="M750 336.77H0V336.89H750V336.77Z" fill="#E0E0E0"/>
<path d="M437.22 130.52C435.672 129.391 433.832 128.73 431.919 128.617C430.006 128.503 428.101 128.942 426.43 129.88C422.05 121.04 409.86 117.14 401.16 121.8C400.015 116.991 397.267 112.714 393.369 109.673C389.471 106.632 384.655 105.008 379.711 105.067C374.768 105.127 369.991 106.866 366.167 110C362.344 113.133 359.7 117.475 358.67 122.31C358.35 123.83 358.13 125.5 357.04 126.61C355.27 128.42 352.32 127.81 349.8 127.61C345.814 127.403 341.874 128.53 338.601 130.814C335.328 133.098 332.91 136.408 331.73 140.22L440.96 139.82C441.92 136.13 440.27 132.82 437.22 130.52Z" fill="#F0F0F0"/>
<path d="M295.46 78.9C294.168 77.9578 292.633 77.4076 291.037 77.3154C289.44 77.2232 287.852 77.5928 286.46 78.38C282.81 71 272.63 67.74 265.37 71.63C264.416 67.6139 262.124 64.042 258.87 61.5018C255.616 58.9616 251.595 57.6044 247.467 57.6533C243.339 57.7021 239.351 59.1542 236.159 61.7708C232.966 64.3873 230.759 68.0124 229.9 72.05C229.63 73.32 229.45 74.72 228.54 75.65C227.06 77.15 224.6 76.65 222.49 76.48C219.164 76.3094 215.875 77.2506 213.143 79.1554C210.411 81.0601 208.39 83.82 207.4 87L298.58 86.67C299.38 83.59 298 80.83 295.46 78.9Z" fill="#F0F0F0"/>
<path d="M503.76 73.69C502.996 73.134 502.089 72.8092 501.146 72.7542C500.202 72.6993 499.263 72.9165 498.44 73.38C497.281 71.2368 495.338 69.6241 493.019 68.8788C490.699 68.1335 488.181 68.313 485.99 69.38C485.425 67.012 484.071 64.9067 482.151 63.4097C480.231 61.9128 477.859 61.1132 475.425 61.1422C472.991 61.1713 470.639 62.0274 468.755 63.5697C466.872 65.1121 465.569 67.2492 465.06 69.63C464.994 70.3968 464.717 71.1305 464.26 71.75C463.38 72.64 461.93 72.34 460.69 72.24C458.726 72.1379 456.784 72.693 455.17 73.8175C453.557 74.9421 452.364 76.572 451.78 78.45L505.6 78.26C505.797 77.4015 505.726 76.5033 505.397 75.6862C505.068 74.8691 504.497 74.1725 503.76 73.69Z" fill="#F0F0F0"/>
<path d="M705.55 111.34C704.79 110.78 703.883 110.453 702.941 110.398C701.998 110.343 701.06 110.562 700.24 111.03C699.077 108.89 697.135 107.281 694.816 106.536C692.498 105.791 689.982 105.968 687.79 107.03C687.22 104.665 685.864 102.563 683.944 101.068C682.024 99.5742 679.653 98.7763 677.22 98.8054C674.787 98.8344 672.436 99.6887 670.552 101.228C668.668 102.768 667.363 104.902 666.85 107.28C666.79 108.048 666.513 108.784 666.05 109.4C665.18 110.29 663.72 109.99 662.48 109.9C660.517 109.795 658.574 110.349 656.962 111.474C655.349 112.599 654.159 114.231 653.58 116.11L707.39 115.91C707.593 115.052 707.525 114.151 707.196 113.333C706.866 112.515 706.291 111.818 705.55 111.34Z" fill="#F0F0F0"/>
<path d="M103.81 114.68C102.791 113.934 101.578 113.497 100.317 113.423C99.0558 113.348 97.8001 113.639 96.7 114.26C93.82 108.44 85.79 105.87 80.07 108.94C79.2509 105.818 77.4318 103.051 74.8909 101.06C72.35 99.0703 69.2272 97.9673 66 97.92C62.7593 98.0266 59.6435 99.1952 57.1319 101.246C54.6204 103.297 52.8524 106.116 52.1 109.27C52.0002 110.299 51.6197 111.282 51 112.11C49.83 113.3 47.89 112.9 46.23 112.77C43.6058 112.632 41.0106 113.374 38.8552 114.877C36.6998 116.381 35.1074 118.56 34.33 121.07L106.24 120.81C106.514 119.662 106.428 118.458 105.993 117.361C105.558 116.264 104.796 115.328 103.81 114.68Z" fill="#F0F0F0"/>
<path d="M468.83 306C468.83 306 494.36 289.93 514.49 286.43C534.62 282.93 698.17 305.55 698.17 305.55L468.83 306Z" fill="#E6E6E6"/>
<path d="M656.94 261.65L646.18 263.19C646.18 263.19 646.11 293.32 645.73 297.03C645.35 300.74 640.21 304.45 640.21 304.45H660.42C655.17 295.49 656.94 261.65 656.94 261.65Z" fill="#E6E6E6"/>
<path d="M688.48 254.52C688.9 252.02 689.327 249.52 689.76 247.02C689.893 246.652 689.925 246.254 689.853 245.869C689.781 245.484 689.607 245.125 689.35 244.83C689.139 244.649 688.884 244.528 688.61 244.48C686.97 244.2 685.77 246.18 684.19 246.17C683.25 244.75 684.29 242.73 685.4 241.48C686.51 240.23 687.94 238.59 687.4 236.79C687.275 236.374 687.049 235.996 686.741 235.689C686.434 235.381 686.056 235.155 685.64 235.03C684.27 234.62 682.94 235.2 681.64 235.77C680.82 233.49 683.34 231.7 684.82 229.77C685.73 228.56 684.82 226.7 683.48 226.95L678.39 227.95C677.892 228.057 677.372 228.012 676.9 227.82C675.01 227.01 675.4 224.45 676.27 222.82C676.61 222.17 677.01 221.53 677.34 220.82C677.486 220.558 677.568 220.264 677.579 219.964C677.59 219.664 677.529 219.365 677.402 219.093C677.275 218.821 677.086 218.583 676.849 218.398C676.612 218.213 676.335 218.087 676.04 218.03C674.933 217.98 673.824 218.071 672.74 218.3C671.66 216.17 673.68 213.74 675.54 212.52C676.484 211.935 677.345 211.225 678.1 210.41C679.19 209.15 678.58 206.97 677.1 206.7L673.43 206.04C673.091 205.988 672.769 205.858 672.49 205.66C671.11 204.66 671.83 202.66 672.77 201.51C673.05 201.16 673.36 200.81 673.64 200.45C673.809 200.245 673.923 200 673.969 199.738C674.016 199.476 673.993 199.207 673.905 198.956C673.816 198.705 673.664 198.482 673.464 198.307C673.263 198.133 673.021 198.013 672.76 197.96L671.63 197.89C672.336 196.38 672.895 194.807 673.3 193.19C673.79 191.19 672.3 189.32 670.52 189.78L668.19 190.39C667.895 190.49 667.575 190.49 667.28 190.39C667.092 190.291 666.93 190.149 666.809 189.975C666.687 189.801 666.608 189.6 666.58 189.39C665.96 186.39 670.92 184.73 670.37 181.67C669.97 179.44 667.25 179.41 665.37 179.93C665.517 177.079 665.959 174.25 666.69 171.49C666.748 171.322 666.768 171.143 666.747 170.966C666.726 170.79 666.665 170.62 666.568 170.471C666.472 170.322 666.343 170.196 666.19 170.104C666.038 170.012 665.867 169.956 665.69 169.94L662.82 170C662.665 170.025 662.506 170.016 662.354 169.975C662.202 169.933 662.061 169.86 661.94 169.76C661.767 169.529 661.672 169.249 661.67 168.96C661.57 167.3 662.61 165.86 663.03 164.27C663.45 162.68 662.54 160.33 661.18 160.83C659.34 159.96 658.08 161.28 657.55 159.36C657.453 159.012 657.419 158.65 657.45 158.29C657.63 156.13 659.45 154.79 659.87 152.77C660.045 151.535 659.953 150.277 659.6 149.08C659.552 148.675 659.381 148.295 659.11 147.99C658.806 147.803 658.465 147.683 658.11 147.64C656.37 147.11 656.23 144.29 656.72 142.27C657.23 140.745 657.384 139.124 657.17 137.53C657.137 137.359 657.07 137.196 656.972 137.052C656.874 136.908 656.748 136.785 656.601 136.692C656.454 136.598 656.289 136.535 656.117 136.508C655.945 136.48 655.769 136.487 655.6 136.53C654.873 136.76 654.195 137.122 653.6 137.6C652.7 135.68 653.24 133.2 652.24 131.28C652.011 130.828 651.666 130.445 651.24 130.17C649.69 129.26 648.38 130.85 648.17 132.46C648.091 133.74 648.272 135.022 648.7 136.23C647.7 135.68 646.54 136.5 646.11 137.63C645.758 138.817 645.686 140.07 645.9 141.29C646.12 143.58 646.34 145.88 646.57 148.17C645.83 146.88 643.92 147.37 643.24 148.7C642.684 150.153 642.62 151.748 643.06 153.24C643.4 154.9 643.71 157.77 643.17 159.41C641.01 160.55 640.79 157.66 639.05 158C638.608 158.128 638.215 158.388 637.926 158.745C637.636 159.103 637.463 159.541 637.43 160C637 162.67 637.85 165.25 637.77 167.76C636.1 167.18 634.22 169.29 634.67 171.25C634.95 172.45 635.87 173.34 635.93 174.65C635.951 174.91 635.91 175.171 635.809 175.411C635.708 175.651 635.551 175.864 635.35 176.03C634.42 176.69 633.85 175.21 632.9 176.03C632.694 176.214 632.534 176.444 632.433 176.701C632.333 176.958 632.294 177.235 632.32 177.51C632.41 179.09 633.66 180.09 633.82 181.65C633.854 181.925 633.829 182.203 633.746 182.467C633.664 182.731 633.525 182.974 633.34 183.18C632.76 183.77 632.25 183.36 631.72 183.29C630.46 183.14 629.59 184.95 629.82 186.39C630.182 187.773 630.788 189.08 631.61 190.25C632.28 191.49 632.77 193.12 632.14 194.4C631.04 193.51 630.56 191.87 629.35 191.1C629.136 190.942 628.885 190.841 628.621 190.806C628.357 190.771 628.088 190.803 627.84 190.9C626.84 191.34 626.68 192.78 626.75 193.97C626.936 196.929 627.726 199.818 629.07 202.46C627.57 203.85 625.86 199.25 624.07 200.46C623.808 200.664 623.603 200.933 623.475 201.239C623.347 201.546 623.301 201.88 623.34 202.21C623.595 206.418 624.954 210.484 627.28 214C627.017 213.664 626.66 213.413 626.254 213.279C625.848 213.146 625.412 213.135 625 213.25C624.498 213.46 624.072 213.817 623.778 214.274C623.483 214.731 623.334 215.267 623.35 215.81C623.35 217.43 624.59 218.64 625.35 220C626.11 221.36 626.08 223.77 624.7 224C623.32 224.23 622.58 222 621.3 221.17C619.8 220.17 617.84 221.84 617.5 223.79C617.319 225.759 617.771 227.735 618.79 229.43C619.817 231.079 620.541 232.897 620.93 234.8L620.39 235.15C618.26 233.2 615.98 235.54 616.69 237.82C617.041 238.75 617.246 239.728 617.3 240.72L617.24 242.2C617.24 244.67 615.24 246.86 613.09 246.79C611.4 246.73 609.64 247.26 608.9 249.03C608.03 251.08 608.77 253.91 610.63 254.87C611.157 255.119 611.637 255.458 612.05 255.87C613.73 257.75 612.41 259.01 611.98 260.49C611.765 261.421 611.841 262.395 612.199 263.281C612.557 264.166 613.179 264.92 613.98 265.44C614.734 265.863 615.567 266.126 616.428 266.212C617.288 266.298 618.157 266.205 618.98 265.94C620.017 265.55 621.125 265.39 622.23 265.47C624.23 266.47 622.67 269.02 624.6 271.41C625.144 272.017 625.832 272.477 626.6 272.75C628.88 273.48 630.43 272.57 631.69 271.03C632.237 270.315 632.942 269.737 633.75 269.34C634.6 268.98 635.5 269.77 635.48 270.83C635.314 272.64 635.694 274.458 636.57 276.05C636.834 276.514 637.213 276.903 637.669 277.18C638.126 277.456 638.646 277.611 639.18 277.63C641.18 277.63 642.23 275.21 643.06 273.21C644.06 270.74 646.06 267.93 648.79 270.56C649.452 271.255 649.887 272.133 650.04 273.08C650.46 275.19 652.71 278.23 654.54 276.9C656.05 275.79 655.63 272.66 657.78 272.15C658.099 272.084 658.429 272.086 658.747 272.155C659.066 272.223 659.367 272.358 659.63 272.55C661.9 274.07 662.23 277.67 664.75 278.84C665.18 279.057 665.673 279.111 666.139 278.994C666.606 278.876 667.014 278.594 667.29 278.2C668.04 277.2 667.59 276.2 667.5 275.2C667.48 274.141 667.791 273.103 668.39 272.23C668.989 271.357 669.845 270.692 670.84 270.33C672.67 269.62 674.66 269.76 676.58 269.5C677.587 269.446 678.565 269.143 679.426 268.62C680.288 268.096 681.007 267.368 681.52 266.5C681.88 265.78 682.06 264.95 682.45 264.25C683.57 262.25 685.95 261.89 688.02 261.59C690.09 261.29 692.5 260.45 693.09 258.14C693.61 255.48 690.4 252.87 688.48 254.52Z" fill="#E6E6E6"/>
<path d="M558.11 240.75L543.11 242.89C543.11 242.89 543.02 284.89 542.48 290.09C541.94 295.29 534.79 300.43 534.79 300.43H563C555.65 287.93 558.11 240.75 558.11 240.75Z" fill="#E6E6E6"/>
<path d="M602.09 230.8C602.677 227.32 603.27 223.837 603.87 220.35C604.05 219.35 604.22 218.13 603.3 217.35C603.02 217.095 602.673 216.925 602.3 216.86C600.02 216.47 598.3 219.23 596.14 219.21C594.83 217.21 596.28 214.41 597.83 212.68C599.38 210.95 601.36 208.68 600.61 206.14C600.441 205.558 600.128 205.028 599.7 204.6C599.272 204.171 598.742 203.858 598.16 203.69C596.24 203.12 594.4 203.92 592.63 204.69C591.49 201.52 595.01 199.02 597.08 196.27C598.34 194.58 597.08 191.98 595.21 192.34L588.1 193.68C587.407 193.826 586.687 193.763 586.03 193.5C583.39 192.37 583.94 188.8 585.15 186.5C585.62 185.6 586.15 184.7 586.64 183.77C587.47 182.1 586.5 179.95 584.83 179.88C583.287 179.806 581.74 179.934 580.23 180.26C578.72 177.26 581.54 173.89 584.13 172.19C585.448 171.376 586.649 170.387 587.7 169.25C589.23 167.49 588.37 164.45 586.24 164.07L581.11 163.16C580.641 163.089 580.195 162.907 579.81 162.63C577.88 161.23 578.88 158.46 580.2 156.84C580.59 156.35 581.02 155.84 581.41 155.37C582.41 154.08 581.69 151.98 580.18 151.89L578.62 151.8C579.6 149.69 580.374 147.49 580.93 145.23C581.63 142.46 579.49 139.84 577.07 140.48L573.81 141.34C573.403 141.494 572.957 141.512 572.54 141.39C572.273 141.254 572.043 141.055 571.869 140.812C571.695 140.568 571.582 140.286 571.54 139.99C570.68 135.75 577.6 133.5 576.83 129.23C576.27 126.12 572.48 126.08 569.83 126.81C570.021 122.821 570.627 118.863 571.64 115C571.721 114.766 571.748 114.516 571.719 114.269C571.69 114.023 571.605 113.787 571.472 113.578C571.338 113.369 571.158 113.193 570.947 113.063C570.735 112.934 570.497 112.854 570.25 112.83L566.25 112.92C566.035 112.953 565.815 112.941 565.605 112.884C565.395 112.827 565.199 112.727 565.03 112.59C564.784 112.269 564.65 111.875 564.65 111.47C564.51 109.15 565.96 107.15 566.54 104.93C567.12 102.71 565.87 99.44 563.96 100.13C561.41 98.93 559.64 100.77 558.9 98.13C558.768 97.6416 558.721 97.1343 558.76 96.63C559.02 93.63 561.52 91.76 562.13 88.94C562.377 87.22 562.25 85.467 561.76 83.8C561.701 83.2308 561.463 82.6951 561.08 82.27C560.641 82.0051 560.15 81.838 559.64 81.78C557.21 81.05 557.03 77.11 557.7 74.3C558.21 72.16 558.84 69.66 558.33 67.68C558.286 67.4404 558.192 67.2125 558.056 67.0104C557.92 66.8083 557.744 66.6363 557.539 66.5051C557.333 66.3738 557.103 66.2861 556.863 66.2474C556.622 66.2087 556.376 66.2198 556.14 66.28C555.108 66.5924 554.144 67.098 553.3 67.77C552.04 65.09 552.8 61.63 551.39 58.96C551.073 58.3257 550.589 57.7898 549.99 57.41C547.84 56.15 545.99 58.35 545.71 60.61C545.601 62.392 545.853 64.1775 546.45 65.86C545.12 65.09 543.45 66.24 542.83 67.86C542.347 69.5158 542.247 71.2601 542.54 72.96C542.86 76.16 543.173 79.36 543.48 82.56C542.48 80.75 539.79 81.44 538.84 83.3C537.89 85.16 538.16 87.52 538.59 89.63C539.06 91.94 539.49 95.95 538.74 98.23C535.74 99.82 535.42 95.8 533 96.23C532.391 96.401 531.848 96.7524 531.443 97.2379C531.038 97.7235 530.789 98.3204 530.73 98.95C530.14 102.68 531.32 106.28 531.21 109.78C528.88 108.96 526.21 111.91 526.9 114.64C527.28 116.31 528.56 117.56 528.64 119.39C528.671 119.752 528.613 120.115 528.472 120.45C528.331 120.784 528.11 121.08 527.83 121.31C526.55 122.23 525.75 120.16 524.42 121.25C524.134 121.509 523.912 121.83 523.771 122.19C523.631 122.549 523.575 122.936 523.61 123.32C523.74 125.53 525.48 126.91 525.7 129.08C525.749 129.464 525.714 129.854 525.599 130.223C525.483 130.592 525.289 130.932 525.03 131.22C524.23 132.05 523.52 131.48 522.77 131.38C521.01 131.17 519.77 133.69 520.12 135.7C520.47 137.71 521.67 139.35 522.62 141.08C523.57 142.81 524.23 145.08 523.35 146.87C521.83 145.63 521.16 143.34 519.47 142.26C519.169 142.046 518.821 141.909 518.455 141.86C518.089 141.811 517.716 141.852 517.37 141.98C515.93 142.61 515.75 144.61 515.85 146.26C516.117 150.352 517.216 154.347 519.08 158C516.97 159.94 514.6 153.52 512.08 155.23C511.722 155.523 511.443 155.9 511.268 156.328C511.094 156.756 511.029 157.221 511.08 157.68C511.44 163.546 513.333 169.215 516.57 174.12C516.199 173.659 515.7 173.319 515.136 173.141C514.572 172.963 513.968 172.956 513.4 173.12C512.703 173.413 512.111 173.91 511.701 174.545C511.29 175.18 511.081 175.924 511.1 176.68C511.1 178.95 512.83 180.68 513.9 182.53C514.97 184.38 514.9 187.78 512.99 188.15C511.08 188.52 509.99 185.32 508.26 184.2C506.16 182.88 503.44 185.14 502.96 187.86C502.48 190.58 503.54 193.33 504.76 195.72C505.98 198.11 507.4 200.47 507.76 203.21L507.01 203.7C504.01 200.98 500.85 204.24 501.85 207.43C502.325 208.715 502.612 210.063 502.7 211.43L502.61 213.49C502.55 216.93 499.78 219.98 496.83 219.88C494.46 219.8 492.02 220.54 490.98 223C489.77 225.87 490.8 229.81 493.39 231.16C494.142 231.513 494.82 232.005 495.39 232.61C497.74 235.23 495.9 236.98 495.3 239.05C494.983 240.346 495.071 241.707 495.554 242.951C496.037 244.194 496.891 245.259 498 246C499.047 246.582 500.201 246.944 501.393 247.064C502.584 247.184 503.788 247.06 504.93 246.7C506.43 246.33 507.93 245.7 509.45 246.03C512.26 247.38 510.07 251.03 512.76 254.32C513.523 255.167 514.486 255.809 515.56 256.19C518.74 257.19 520.91 255.94 522.66 253.8C523.422 252.802 524.404 251.995 525.53 251.44C526.72 250.93 527.97 252.03 527.94 253.51C527.89 256.06 528.09 258.62 529.47 260.79C529.835 261.437 530.361 261.98 530.997 262.365C531.633 262.751 532.357 262.966 533.1 262.99C535.94 262.92 537.35 259.62 538.52 256.83C539.96 253.39 542.67 249.46 546.52 253.14C547.452 254.105 548.063 255.334 548.27 256.66C548.85 259.6 552 263.83 554.55 261.97C556.65 260.44 556.06 256.06 559.06 255.35C559.505 255.258 559.965 255.261 560.409 255.357C560.854 255.454 561.273 255.642 561.64 255.91C564.81 258.03 565.27 263.05 568.78 264.68C569.382 264.972 570.068 265.043 570.717 264.88C571.366 264.717 571.937 264.331 572.33 263.79C573.33 262.41 572.74 261.06 572.62 259.68C572.34 256.57 574.71 253.87 577.27 252.88C579.83 251.89 582.59 252.09 585.27 251.73C587.95 251.37 590.82 250.24 592.16 247.53C592.66 246.53 592.91 245.37 593.45 244.4C595.02 241.56 598.34 241.1 601.22 240.68C604.1 240.26 607.47 239.1 608.3 235.87C609.24 232.15 604.76 228.51 602.09 230.8Z" fill="#E6E6E6"/>
<path d="M709.36 355.2H653.63V355.62H709.36V355.2Z" fill="#EBEBEB"/>
<path d="M509.67 359.77H495.04V360.19H509.67V359.77Z" fill="#EBEBEB"/>
<path d="M113.31 342.4H40.64V342.82H113.31V342.4Z" fill="#EBEBEB"/>
<path d="M138.96 342.4H128.3V342.82H138.96V342.4Z" fill="#EBEBEB"/>
<path d="M331.2 349.51H173.59V349.93H331.2V349.51Z" fill="#EBEBEB"/>
<path d="M719.29 305.81H22.29C22.2237 305.81 22.1601 305.784 22.1132 305.737C22.0663 305.69 22.04 305.626 22.04 305.56C22.04 305.494 22.0663 305.43 22.1132 305.383C22.1601 305.336 22.2237 305.31 22.29 305.31H719.29C719.356 305.31 719.42 305.336 719.467 305.383C719.514 305.43 719.54 305.494 719.54 305.56C719.54 305.626 719.514 305.69 719.467 305.737C719.42 305.784 719.356 305.81 719.29 305.81Z" fill="black"/>
<path d="M660.88 72.34C660.88 74.99 657.04 77.1 656.38 79.55C655.72 82 657.95 85.83 656.67 88.04C655.39 90.25 650.99 90.21 649.17 92.04C647.35 93.87 647.42 98.25 645.17 99.55C642.92 100.85 639.17 98.55 636.68 99.25C634.19 99.95 632.11 103.75 629.46 103.75C626.81 103.75 624.69 99.91 622.25 99.25C619.81 98.59 615.97 100.84 613.75 99.55C611.53 98.26 611.59 93.86 609.75 92.04C607.91 90.22 603.54 90.31 602.24 88.04C600.94 85.77 603.24 82.04 602.53 79.53C601.82 77.02 598.04 74.98 598.04 72.32C598.04 69.66 601.88 67.56 602.53 65.11C603.18 62.66 600.96 58.83 602.24 56.62C603.52 54.41 607.92 54.45 609.75 52.62C611.58 50.79 611.49 46.41 613.75 45.11C616.01 43.81 619.75 46.11 622.25 45.4C624.75 44.69 626.81 40.91 629.46 40.91C632.11 40.91 634.23 44.75 636.68 45.4C639.13 46.05 642.95 43.83 645.17 45.11C647.39 46.39 647.33 50.79 649.17 52.62C651.01 54.45 655.37 54.36 656.67 56.62C657.97 58.88 655.67 62.62 656.38 65.11C657.09 67.6 660.88 69.69 660.88 72.34Z" fill="#407BFF"/>
<g opacity="0.8">
<path d="M660.88 72.34C660.88 74.99 657.04 77.1 656.38 79.55C655.72 82 657.95 85.83 656.67 88.04C655.39 90.25 650.99 90.21 649.17 92.04C647.35 93.87 647.42 98.25 645.17 99.55C642.92 100.85 639.17 98.55 636.68 99.25C634.19 99.95 632.11 103.75 629.46 103.75C626.81 103.75 624.69 99.91 622.25 99.25C619.81 98.59 615.97 100.84 613.75 99.55C611.53 98.26 611.59 93.86 609.75 92.04C607.91 90.22 603.54 90.31 602.24 88.04C600.94 85.77 603.24 82.04 602.53 79.53C601.82 77.02 598.04 74.98 598.04 72.32C598.04 69.66 601.88 67.56 602.53 65.11C603.18 62.66 600.96 58.83 602.24 56.62C603.52 54.41 607.92 54.45 609.75 52.62C611.58 50.79 611.49 46.41 613.75 45.11C616.01 43.81 619.75 46.11 622.25 45.4C624.75 44.69 626.81 40.91 629.46 40.91C632.11 40.91 634.23 44.75 636.68 45.4C639.13 46.05 642.95 43.83 645.17 45.11C647.39 46.39 647.33 50.79 649.17 52.62C651.01 54.45 655.37 54.36 656.67 56.62C657.97 58.88 655.67 62.62 656.38 65.11C657.09 67.6 660.88 69.69 660.88 72.34Z" fill="white"/>
</g>
<path d="M634.848 94.1571C647.118 92.1742 655.457 80.6204 653.474 68.3511C651.491 56.0818 639.937 47.743 627.668 49.7259C615.398 51.7088 607.06 63.2626 609.043 75.5319C611.025 87.8012 622.579 96.14 634.848 94.1571Z" fill="#407BFF"/>
<path opacity="0.5" d="M634.848 94.1571C647.118 92.1742 655.457 80.6204 653.474 68.3511C651.491 56.0818 639.937 47.743 627.668 49.7259C615.398 51.7088 607.06 63.2626 609.043 75.5319C611.025 87.8012 622.579 96.14 634.848 94.1571Z" fill="white"/>
<path d="M98.49 245.25L89.12 246.59C89.12 246.59 89.07 272.83 88.73 276.07C88.39 279.31 83.93 282.53 83.93 282.53H101.53C97 274.72 98.49 245.25 98.49 245.25Z" fill="#263238"/>
<path d="M126 239L127.11 232.47C127.227 232.149 127.256 231.803 127.194 231.468C127.133 231.132 126.983 230.819 126.76 230.56C126.577 230.405 126.356 230.301 126.12 230.26C124.69 230.02 123.64 231.74 122.27 231.73C121.45 230.49 122.35 228.73 123.27 227.65C124.19 226.57 125.48 225.13 125.01 223.56C124.902 223.198 124.705 222.869 124.438 222.602C124.171 222.335 123.842 222.138 123.48 222.03C122.29 221.82 121.065 222.047 120.03 222.67C119.31 220.67 121.51 219.13 122.8 217.41C123.59 216.41 122.8 214.73 121.63 214.96L117.2 215.79C116.769 215.885 116.319 215.846 115.91 215.68C114.26 214.98 114.6 212.74 115.35 211.29C115.65 210.73 116 210.17 116.28 209.59C116.41 209.362 116.485 209.106 116.496 208.844C116.508 208.582 116.457 208.321 116.348 208.082C116.238 207.843 116.073 207.634 115.867 207.472C115.66 207.31 115.418 207.2 115.16 207.15C114.194 207.11 113.226 207.19 112.28 207.39C111.34 205.53 113.1 203.39 114.72 202.39C115.539 201.883 116.286 201.268 116.94 200.56C117.162 200.309 117.318 200.007 117.393 199.681C117.468 199.354 117.46 199.014 117.37 198.692C117.279 198.369 117.109 198.074 116.875 197.835C116.641 197.595 116.35 197.418 116.03 197.32L112.83 196.75C112.538 196.704 112.261 196.591 112.02 196.42C110.81 195.55 111.44 193.82 112.26 192.8C112.5 192.5 112.77 192.2 113.02 191.89C113.168 191.71 113.267 191.496 113.307 191.267C113.347 191.038 113.328 190.802 113.25 190.583C113.173 190.363 113.04 190.168 112.865 190.015C112.69 189.862 112.478 189.757 112.25 189.71L111.25 189.66C111.865 188.344 112.351 186.97 112.7 185.56C113.13 183.83 111.8 182.19 110.29 182.56L108.29 183.09C108.033 183.175 107.757 183.175 107.5 183.09C107.337 183.001 107.196 182.875 107.09 182.722C106.984 182.57 106.916 182.394 106.89 182.21C106.35 179.56 110.67 178.15 110.19 175.49C109.84 173.55 107.48 173.49 105.82 173.98C105.96 171.519 106.355 169.079 107 166.7C107.055 166.554 107.075 166.397 107.058 166.242C107.042 166.087 106.989 165.937 106.905 165.806C106.82 165.675 106.706 165.565 106.571 165.486C106.437 165.407 106.286 165.36 106.13 165.35L103.62 165.4C103.486 165.418 103.349 165.409 103.218 165.373C103.088 165.337 102.966 165.275 102.86 165.19C102.702 164.991 102.617 164.744 102.62 164.49C102.53 163.05 103.44 161.8 103.8 160.41C104.16 159.02 103.38 156.98 102.19 157.41C100.6 156.66 99.49 157.81 99.03 156.14C98.9486 155.834 98.9215 155.516 98.95 155.2C99.1 153.32 100.67 152.2 101.05 150.4C101.203 149.326 101.125 148.231 100.82 147.19C100.79 146.819 100.639 146.467 100.39 146.19C100.116 146.024 99.8087 145.921 99.49 145.89C97.98 145.43 97.86 142.97 98.28 141.21C98.7247 139.881 98.8615 138.469 98.68 137.08C98.6505 136.931 98.5912 136.789 98.5057 136.664C98.4201 136.538 98.3101 136.431 98.1822 136.349C98.0543 136.266 97.9111 136.211 97.7612 136.185C97.6114 136.16 97.4579 136.165 97.31 136.2C96.6626 136.398 96.0586 136.717 95.53 137.14C94.75 135.46 95.22 133.3 94.34 131.63C94.1497 131.218 93.844 130.871 93.46 130.63C92.12 129.84 90.98 131.21 90.79 132.63C90.6942 133.77 90.8337 134.917 91.2 136C90.37 135.52 89.33 136.24 88.95 137.22C88.6406 138.251 88.5755 139.34 88.76 140.4C88.96 142.4 89.15 144.4 89.35 146.4C88.71 145.27 87.04 145.7 86.45 146.86C85.9689 148.125 85.9162 149.512 86.3 150.81C86.7093 152.577 86.74 154.41 86.39 156.19C84.51 157.19 84.31 154.67 82.8 154.96C82.424 155.074 82.0898 155.295 81.8391 155.598C81.5883 155.9 81.4321 156.27 81.39 156.66C81.02 158.99 81.76 161.24 81.69 163.43C80.23 162.92 78.6 164.76 78.99 166.43C79.23 167.48 79.99 168.26 80.08 169.43C80.0999 169.656 80.0648 169.883 79.9777 170.092C79.8906 170.301 79.7542 170.485 79.58 170.63C78.77 171.21 78.27 169.91 77.44 170.63C77.2623 170.794 77.1247 170.996 77.0379 171.222C76.9512 171.447 76.9177 171.689 76.94 171.93C77.02 173.3 78.11 174.17 78.24 175.52C78.2735 175.76 78.2541 176.004 78.1833 176.235C78.1125 176.467 77.9919 176.68 77.83 176.86C77.33 177.38 76.83 177.02 76.41 176.96C75.32 176.83 74.57 178.4 74.76 179.66C75.0853 180.854 75.6129 181.984 76.32 183C76.6694 183.526 76.8927 184.125 76.9725 184.751C77.0523 185.377 76.9864 186.013 76.78 186.61C75.78 185.84 75.41 184.41 74.35 183.73C74.1625 183.596 73.9448 183.51 73.7163 183.481C73.4878 183.451 73.2555 183.478 73.04 183.56C72.14 183.95 72.04 185.2 72.04 186.23C72.197 188.807 72.8775 191.325 74.04 193.63C72.73 194.84 71.25 190.84 69.69 191.9C69.4641 192.081 69.2878 192.316 69.1776 192.584C69.0674 192.851 69.027 193.143 69.06 193.43C69.286 197.094 70.4686 200.635 72.49 203.7C72.2594 203.405 71.9457 203.185 71.5894 203.069C71.233 202.953 70.8502 202.947 70.49 203.05C70.0558 203.233 69.6871 203.543 69.4319 203.939C69.1768 204.335 69.0471 204.799 69.06 205.27C69.06 206.69 70.14 207.73 70.81 208.92C71.48 210.11 71.44 212.2 70.24 212.43C69.04 212.66 68.39 210.67 67.24 209.97C65.93 209.14 64.24 210.55 63.93 212.25C63.768 213.966 64.1643 215.688 65.06 217.16C65.9742 218.581 66.6309 220.151 67 221.8L66.53 222.1C64.67 220.4 62.69 222.44 63.31 224.43C63.6055 225.244 63.7839 226.096 63.84 226.96L63.78 228.24C63.78 230.39 62.02 232.3 60.17 232.24C59.4338 232.14 58.6846 232.274 58.0293 232.624C57.3739 232.974 56.8457 233.522 56.52 234.19C55.76 235.98 56.41 238.44 58.03 239.28C58.4905 239.504 58.9071 239.809 59.26 240.18C60.73 241.82 59.58 242.91 59.26 244.18C59.0658 244.995 59.1288 245.849 59.4404 246.626C59.752 247.404 60.2969 248.065 61 248.52C61.6544 248.882 62.3756 249.108 63.1199 249.184C63.8641 249.26 64.616 249.183 65.33 248.96C66.2302 248.611 67.1971 248.467 68.16 248.54C69.91 249.38 68.54 251.63 70.22 253.72C70.699 254.247 71.2999 254.649 71.97 254.89C72.7696 255.173 73.6413 255.179 74.4448 254.907C75.2484 254.635 75.937 254.101 76.4 253.39C76.8762 252.765 77.4929 252.262 78.2 251.92C78.94 251.6 79.72 252.28 79.7 253.21C79.5746 254.792 79.9227 256.376 80.7 257.76C80.9286 258.164 81.2576 258.503 81.6553 258.743C82.0529 258.983 82.5057 259.116 82.97 259.13C84.74 259.13 85.62 257.02 86.35 255.28C87.25 253.14 88.94 250.68 91.35 252.98C91.9236 253.585 92.3032 254.348 92.44 255.17C92.8 257.01 94.77 259.65 96.36 258.49C97.67 257.49 97.3 254.8 99.17 254.36C99.4495 254.303 99.7379 254.305 100.017 254.365C100.296 254.425 100.559 254.543 100.79 254.71C102.79 256.03 103.06 259.17 105.25 260.19C105.626 260.37 106.053 260.413 106.456 260.31C106.86 260.208 107.215 259.967 107.46 259.63C108.11 258.77 107.72 257.92 107.64 257.06C107.621 256.138 107.891 255.233 108.413 254.472C108.935 253.711 109.682 253.134 110.55 252.82C112.15 252.2 113.88 252.32 115.55 252.1C116.428 252.05 117.28 251.783 118.03 251.324C118.78 250.865 119.405 250.229 119.85 249.47C120.16 248.84 120.32 248.12 120.66 247.52C121.66 245.75 123.71 245.46 125.51 245.2C127.31 244.94 129.42 244.2 129.93 242.2C130.43 239.88 127.63 237.6 126 239Z" fill="#407BFF"/>
<g opacity="0.3">
<path d="M126 239L127.11 232.47C127.227 232.149 127.256 231.803 127.194 231.468C127.133 231.132 126.983 230.819 126.76 230.56C126.577 230.405 126.356 230.301 126.12 230.26C124.69 230.02 123.64 231.74 122.27 231.73C121.45 230.49 122.35 228.73 123.27 227.65C124.19 226.57 125.48 225.13 125.01 223.56C124.902 223.198 124.705 222.869 124.438 222.602C124.171 222.335 123.842 222.138 123.48 222.03C122.29 221.82 121.065 222.047 120.03 222.67C119.31 220.67 121.51 219.13 122.8 217.41C123.59 216.41 122.8 214.73 121.63 214.96L117.2 215.79C116.769 215.885 116.319 215.846 115.91 215.68C114.26 214.98 114.6 212.74 115.35 211.29C115.65 210.73 116 210.17 116.28 209.59C116.41 209.362 116.485 209.106 116.496 208.844C116.508 208.582 116.457 208.321 116.348 208.082C116.238 207.843 116.073 207.634 115.867 207.472C115.66 207.31 115.418 207.2 115.16 207.15C114.194 207.11 113.226 207.19 112.28 207.39C111.34 205.53 113.1 203.39 114.72 202.39C115.539 201.883 116.286 201.268 116.94 200.56C117.162 200.309 117.318 200.007 117.393 199.681C117.468 199.354 117.46 199.014 117.37 198.692C117.279 198.369 117.109 198.074 116.875 197.835C116.641 197.595 116.35 197.418 116.03 197.32L112.83 196.75C112.538 196.704 112.261 196.591 112.02 196.42C110.81 195.55 111.44 193.82 112.26 192.8C112.5 192.5 112.77 192.2 113.02 191.89C113.168 191.71 113.267 191.496 113.307 191.267C113.347 191.038 113.328 190.802 113.25 190.583C113.173 190.363 113.04 190.168 112.865 190.015C112.69 189.862 112.478 189.757 112.25 189.71L111.25 189.66C111.865 188.344 112.351 186.97 112.7 185.56C113.13 183.83 111.8 182.19 110.29 182.56L108.29 183.09C108.033 183.175 107.757 183.175 107.5 183.09C107.337 183.001 107.196 182.875 107.09 182.722C106.984 182.57 106.916 182.394 106.89 182.21C106.35 179.56 110.67 178.15 110.19 175.49C109.84 173.55 107.48 173.49 105.82 173.98C105.96 171.519 106.355 169.079 107 166.7C107.055 166.554 107.075 166.397 107.058 166.242C107.042 166.087 106.989 165.937 106.905 165.806C106.82 165.675 106.706 165.565 106.571 165.486C106.437 165.407 106.286 165.36 106.13 165.35L103.62 165.4C103.486 165.418 103.349 165.409 103.218 165.373C103.088 165.337 102.966 165.275 102.86 165.19C102.702 164.991 102.617 164.744 102.62 164.49C102.53 163.05 103.44 161.8 103.8 160.41C104.16 159.02 103.38 156.98 102.19 157.41C100.6 156.66 99.49 157.81 99.03 156.14C98.9486 155.834 98.9215 155.516 98.95 155.2C99.1 153.32 100.67 152.2 101.05 150.4C101.203 149.326 101.125 148.231 100.82 147.19C100.79 146.819 100.639 146.467 100.39 146.19C100.116 146.024 99.8087 145.921 99.49 145.89C97.98 145.43 97.86 142.97 98.28 141.21C98.7247 139.881 98.8615 138.469 98.68 137.08C98.6505 136.931 98.5912 136.789 98.5057 136.664C98.4201 136.538 98.3101 136.431 98.1822 136.349C98.0543 136.266 97.9111 136.211 97.7612 136.185C97.6114 136.16 97.4579 136.165 97.31 136.2C96.6626 136.398 96.0586 136.717 95.53 137.14C94.75 135.46 95.22 133.3 94.34 131.63C94.1497 131.218 93.844 130.871 93.46 130.63C92.12 129.84 90.98 131.21 90.79 132.63C90.6942 133.77 90.8337 134.917 91.2 136C90.37 135.52 89.33 136.24 88.95 137.22C88.6406 138.251 88.5755 139.34 88.76 140.4C88.96 142.4 89.15 144.4 89.35 146.4C88.71 145.27 87.04 145.7 86.45 146.86C85.9689 148.125 85.9162 149.512 86.3 150.81C86.7093 152.577 86.74 154.41 86.39 156.19C84.51 157.19 84.31 154.67 82.8 154.96C82.424 155.074 82.0898 155.295 81.8391 155.598C81.5883 155.9 81.4321 156.27 81.39 156.66C81.02 158.99 81.76 161.24 81.69 163.43C80.23 162.92 78.6 164.76 78.99 166.43C79.23 167.48 79.99 168.26 80.08 169.43C80.0999 169.656 80.0648 169.883 79.9777 170.092C79.8906 170.301 79.7542 170.485 79.58 170.63C78.77 171.21 78.27 169.91 77.44 170.63C77.2623 170.794 77.1247 170.996 77.0379 171.222C76.9512 171.447 76.9177 171.689 76.94 171.93C77.02 173.3 78.11 174.17 78.24 175.52C78.2735 175.76 78.2541 176.004 78.1833 176.235C78.1125 176.467 77.9919 176.68 77.83 176.86C77.33 177.38 76.83 177.02 76.41 176.96C75.32 176.83 74.57 178.4 74.76 179.66C75.0853 180.854 75.6129 181.984 76.32 183C76.6694 183.526 76.8927 184.125 76.9725 184.751C77.0523 185.377 76.9864 186.013 76.78 186.61C75.78 185.84 75.41 184.41 74.35 183.73C74.1625 183.596 73.9448 183.51 73.7163 183.481C73.4878 183.451 73.2555 183.478 73.04 183.56C72.14 183.95 72.04 185.2 72.04 186.23C72.197 188.807 72.8775 191.325 74.04 193.63C72.73 194.84 71.25 190.84 69.69 191.9C69.4641 192.081 69.2878 192.316 69.1776 192.584C69.0674 192.851 69.027 193.143 69.06 193.43C69.286 197.094 70.4686 200.635 72.49 203.7C72.2594 203.405 71.9457 203.185 71.5894 203.069C71.233 202.953 70.8502 202.947 70.49 203.05C70.0558 203.233 69.6871 203.543 69.4319 203.939C69.1768 204.335 69.0471 204.799 69.06 205.27C69.06 206.69 70.14 207.73 70.81 208.92C71.48 210.11 71.44 212.2 70.24 212.43C69.04 212.66 68.39 210.67 67.24 209.97C65.93 209.14 64.24 210.55 63.93 212.25C63.768 213.966 64.1643 215.688 65.06 217.16C65.9742 218.581 66.6309 220.151 67 221.8L66.53 222.1C64.67 220.4 62.69 222.44 63.31 224.43C63.6055 225.244 63.7839 226.096 63.84 226.96L63.78 228.24C63.78 230.39 62.02 232.3 60.17 232.24C59.4338 232.14 58.6846 232.274 58.0293 232.624C57.3739 232.974 56.8457 233.522 56.52 234.19C55.76 235.98 56.41 238.44 58.03 239.28C58.4905 239.504 58.9071 239.809 59.26 240.18C60.73 241.82 59.58 242.91 59.26 244.18C59.0658 244.995 59.1288 245.849 59.4404 246.626C59.752 247.404 60.2969 248.065 61 248.52C61.6544 248.882 62.3756 249.108 63.1199 249.184C63.8641 249.26 64.616 249.183 65.33 248.96C66.2302 248.611 67.1971 248.467 68.16 248.54C69.91 249.38 68.54 251.63 70.22 253.72C70.699 254.247 71.2999 254.649 71.97 254.89C72.7696 255.173 73.6413 255.179 74.4448 254.907C75.2484 254.635 75.937 254.101 76.4 253.39C76.8762 252.765 77.4929 252.262 78.2 251.92C78.94 251.6 79.72 252.28 79.7 253.21C79.5746 254.792 79.9227 256.376 80.7 257.76C80.9286 258.164 81.2576 258.503 81.6553 258.743C82.0529 258.983 82.5057 259.116 82.97 259.13C84.74 259.13 85.62 257.02 86.35 255.28C87.25 253.14 88.94 250.68 91.35 252.98C91.9236 253.585 92.3032 254.348 92.44 255.17C92.8 257.01 94.77 259.65 96.36 258.49C97.67 257.49 97.3 254.8 99.17 254.36C99.4495 254.303 99.7379 254.305 100.017 254.365C100.296 254.425 100.559 254.543 100.79 254.71C102.79 256.03 103.06 259.17 105.25 260.19C105.626 260.37 106.053 260.413 106.456 260.31C106.86 260.208 107.215 259.967 107.46 259.63C108.11 258.77 107.72 257.92 107.64 257.06C107.621 256.138 107.891 255.233 108.413 254.472C108.935 253.711 109.682 253.134 110.55 252.82C112.15 252.2 113.88 252.32 115.55 252.1C116.428 252.05 117.28 251.783 118.03 251.324C118.78 250.865 119.405 250.229 119.85 249.47C120.16 248.84 120.32 248.12 120.66 247.52C121.66 245.75 123.71 245.46 125.51 245.2C127.31 244.94 129.42 244.2 129.93 242.2C130.43 239.88 127.63 237.6 126 239Z" fill="black"/>
</g>
<path d="M165.24 218.89L152 220.78C152 220.78 151.92 257.78 151.45 262.34C150.98 266.9 144.67 271.45 144.67 271.45H169.49C163.08 260.44 165.24 218.89 165.24 218.89Z" fill="#263238"/>
<path d="M204 210.13L205.57 200.93C205.733 200.478 205.772 199.99 205.684 199.517C205.597 199.045 205.384 198.604 205.07 198.24C204.816 198.015 204.504 197.866 204.17 197.81C202.17 197.47 200.68 199.9 198.74 199.88C197.58 198.14 198.86 195.66 200.23 194.13C201.6 192.6 203.34 190.58 202.68 188.37C202.529 187.858 202.252 187.393 201.874 187.016C201.497 186.638 201.032 186.361 200.52 186.21C198.83 185.71 197.21 186.42 195.65 187.11C194.65 184.32 197.75 182.11 199.57 179.69C200.68 178.21 199.57 175.92 197.92 176.24L191.66 177.42C191.05 177.544 190.416 177.485 189.84 177.25C187.52 176.25 187.99 173.11 189.06 171.07C189.48 170.27 189.97 169.48 190.37 168.66C191.1 167.19 190.25 165.3 188.78 165.23C187.421 165.168 186.06 165.283 184.73 165.57C183.4 162.95 185.89 159.96 188.17 158.47C189.32 157.744 190.372 156.874 191.3 155.88C192.65 154.33 191.89 151.65 190.02 151.32L185.51 150.51C185.096 150.449 184.702 150.291 184.36 150.05C182.66 148.81 183.54 146.37 184.7 144.94C185.04 144.52 185.42 144.09 185.77 143.65C186.67 142.51 186.02 140.65 184.69 140.59L183.31 140.5C184.157 138.644 184.827 136.712 185.31 134.73C185.92 132.28 184.04 129.98 181.91 130.54L179.04 131.29C178.683 131.431 178.288 131.448 177.92 131.34C177.69 131.218 177.493 131.042 177.346 130.828C177.198 130.614 177.103 130.368 177.07 130.11C176.3 126.37 182.4 124.39 181.72 120.63C181.23 117.89 177.89 117.86 175.54 118.5C175.717 114.997 176.257 111.522 177.15 108.13C177.222 107.925 177.247 107.705 177.222 107.489C177.197 107.273 177.122 107.065 177.005 106.882C176.887 106.698 176.729 106.544 176.543 106.431C176.357 106.318 176.147 106.25 175.93 106.23L172.4 106.31C172.209 106.338 172.014 106.325 171.828 106.274C171.642 106.222 171.469 106.132 171.32 106.01C171.097 105.725 170.98 105.372 170.99 105.01C170.86 103.01 172.14 101.21 172.65 99.25C173.16 97.29 172.06 94.42 170.38 95.03C168.13 93.97 166.58 95.59 165.92 93.23C165.805 92.8001 165.764 92.3536 165.8 91.91C166.03 89.27 168.23 87.62 168.8 85.14C169.015 83.6238 168.902 82.0791 168.47 80.61C168.416 80.1133 168.21 79.6454 167.88 79.27C167.49 79.0337 167.053 78.8837 166.6 78.83C164.47 78.19 164.3 74.72 164.9 72.25C165.35 70.36 165.9 68.16 165.45 66.42C165.411 66.2084 165.33 66.007 165.21 65.8283C165.09 65.6495 164.935 65.4973 164.754 65.381C164.573 65.2648 164.37 65.1869 164.158 65.1524C163.946 65.1178 163.728 65.1272 163.52 65.18C162.61 65.4562 161.761 65.9043 161.02 66.5C159.91 64.14 160.58 61.09 159.34 58.74C159.06 58.1785 158.631 57.7046 158.1 57.37C156.21 56.26 154.6 58.2 154.34 60.19C154.241 61.7581 154.462 63.33 154.99 64.81C153.82 64.13 152.34 65.15 151.8 66.53C151.37 67.9872 151.285 69.5241 151.55 71.02L152.37 79.48C151.46 77.89 149.12 78.48 148.29 80.13C147.46 81.78 147.69 83.84 148.07 85.7C148.48 87.7 148.86 91.26 148.2 93.27C145.55 94.68 145.27 91.13 143.14 91.55C142.603 91.7011 142.125 92.0114 141.768 92.4398C141.411 92.8682 141.192 93.3947 141.14 93.95C140.62 97.23 141.66 100.4 141.56 103.49C139.5 102.77 137.2 105.36 137.76 107.77C138.1 109.24 139.22 110.34 139.29 111.94C139.317 112.26 139.266 112.581 139.142 112.877C139.019 113.172 138.826 113.434 138.58 113.64C137.45 114.45 136.75 112.64 135.58 113.59C135.327 113.817 135.13 114.099 135.005 114.415C134.88 114.731 134.831 115.072 134.86 115.41C134.98 117.35 136.51 118.57 136.7 120.48C136.746 120.817 136.717 121.159 136.617 121.484C136.517 121.809 136.347 122.108 136.12 122.36C135.41 123.09 134.79 122.59 134.12 122.51C132.58 122.32 131.52 124.51 131.79 126.31C132.06 128.11 133.16 129.52 133.99 131.05C134.82 132.58 135.41 134.58 134.64 136.14C133.3 135.05 132.7 133.04 131.22 132.09C130.955 131.901 130.648 131.779 130.326 131.736C130.004 131.692 129.675 131.728 129.37 131.84C128.1 132.39 127.94 134.15 128.03 135.61C128.252 139.246 129.222 142.796 130.88 146.04C129.03 147.75 126.88 142.1 124.74 143.61C124.421 143.863 124.173 144.194 124.017 144.57C123.861 144.946 123.804 145.356 123.85 145.76C124.169 150.925 125.834 155.917 128.68 160.24C128.36 159.825 127.923 159.516 127.426 159.352C126.929 159.188 126.394 159.177 125.89 159.32C125.283 159.583 124.768 160.021 124.411 160.579C124.055 161.137 123.873 161.788 123.89 162.45C123.89 164.45 125.42 165.93 126.36 167.6C127.3 169.27 127.26 172.23 125.56 172.55C123.86 172.87 122.96 170.06 121.39 169.08C119.54 167.91 117.14 169.9 116.72 172.3C116.3 174.7 117.24 177.11 118.31 179.22C119.38 181.33 120.64 183.4 120.93 185.82L120.27 186.25C117.65 183.85 114.85 186.72 115.73 189.53C116.152 190.674 116.405 191.873 116.48 193.09L116.4 194.9C116.4 197.9 113.91 200.62 111.31 200.53C109.23 200.46 107.08 201.12 106.16 203.28C105.09 205.81 106 209.28 108.28 210.46C108.936 210.777 109.529 211.211 110.03 211.74C112.09 214.05 110.47 215.59 109.95 217.41C109.681 218.548 109.767 219.742 110.198 220.829C110.629 221.917 111.384 222.845 112.36 223.49C113.283 224.002 114.301 224.321 115.351 224.428C116.402 224.534 117.463 224.426 118.47 224.11C119.744 223.623 121.11 223.422 122.47 223.52C124.95 224.71 123.02 227.88 125.38 230.82C126.055 231.564 126.904 232.131 127.85 232.47C130.65 233.36 132.56 232.25 134.1 230.36C134.773 229.482 135.639 228.771 136.63 228.28C137.68 227.84 138.78 228.8 138.75 230.1C138.558 232.326 139.027 234.56 140.1 236.52C140.423 237.089 140.888 237.565 141.448 237.903C142.008 238.241 142.646 238.429 143.3 238.45C145.8 238.39 147.04 235.45 148.07 233.02C149.33 230.02 151.72 226.54 155.07 229.78C155.889 230.627 156.427 231.706 156.61 232.87C157.12 235.47 159.89 239.19 162.14 237.55C163.99 236.2 163.47 232.35 166.14 231.73C166.533 231.646 166.939 231.647 167.332 231.731C167.725 231.816 168.096 231.982 168.42 232.22C171.21 234.09 171.61 238.51 174.7 239.94C175.229 240.199 175.833 240.261 176.405 240.117C176.976 239.972 177.478 239.63 177.82 239.15C178.74 237.94 178.19 236.75 178.08 235.54C177.84 232.8 179.93 230.42 182.18 229.54C184.43 228.66 186.87 228.84 189.18 228.54C191.49 228.24 194.07 227.22 195.25 224.83C195.69 223.95 195.92 222.94 196.39 222.08C197.77 219.58 200.7 219.18 203.23 218.81C205.76 218.44 208.74 217.41 209.46 214.57C210.27 211.32 206.33 208.11 204 210.13Z" fill="#407BFF"/>
<path d="M265.66 238.66L255.31 240.14C255.31 240.14 255.25 269.14 254.88 272.72C254.51 276.3 249.56 279.86 249.56 279.86H269C264 271.23 265.66 238.66 265.66 238.66Z" fill="#263238"/>
<path d="M296 231.8L297.23 224.59C297.356 224.234 297.386 223.852 297.315 223.481C297.245 223.11 297.078 222.765 296.83 222.48C296.634 222.302 296.391 222.184 296.13 222.14C294.55 221.87 293.39 223.78 291.87 223.76C290.97 222.4 291.97 220.45 293.04 219.25C294.11 218.05 295.48 216.47 294.96 214.74C294.841 214.34 294.624 213.976 294.329 213.681C294.034 213.386 293.67 213.169 293.27 213.05C291.953 212.809 290.593 213.062 289.45 213.76C288.66 211.56 291.09 209.84 292.52 207.94C293.39 206.78 292.52 204.94 291.23 205.23L286.32 206.16C285.844 206.257 285.35 206.212 284.9 206.03C283.08 205.25 283.45 202.78 284.29 201.18C284.61 200.56 285 199.94 285.29 199.29C285.431 199.038 285.511 198.756 285.522 198.467C285.533 198.178 285.475 197.891 285.353 197.629C285.23 197.367 285.048 197.138 284.819 196.961C284.591 196.784 284.324 196.663 284.04 196.61C282.973 196.561 281.905 196.649 280.86 196.87C279.86 194.82 281.77 192.48 283.55 191.3C284.458 190.75 285.286 190.077 286.01 189.3C287.07 188.09 286.48 185.99 285.01 185.73L281.47 185.1C281.146 185.047 280.838 184.92 280.57 184.73C279.24 183.73 279.93 181.85 280.84 180.73C281.11 180.4 281.4 180.07 281.68 179.73C281.844 179.533 281.955 179.296 282 179.043C282.045 178.79 282.024 178.53 281.938 178.288C281.853 178.046 281.705 177.83 281.511 177.662C281.317 177.494 281.082 177.38 280.83 177.33L279.75 177.26C280.424 175.807 280.96 174.294 281.35 172.74C281.83 170.82 280.35 169.02 278.68 169.46L276.43 170.05C276.143 170.139 275.836 170.139 275.55 170.05C275.366 169.95 275.21 169.807 275.095 169.633C274.979 169.458 274.909 169.258 274.89 169.05C274.29 166.12 279.06 164.56 278.53 161.62C278.15 159.47 275.53 159.44 273.69 159.95C273.83 157.203 274.255 154.479 274.96 151.82C275.016 151.656 275.033 151.481 275.01 151.309C274.987 151.137 274.925 150.972 274.828 150.828C274.731 150.684 274.603 150.564 274.452 150.478C274.301 150.391 274.133 150.341 273.96 150.33L271.2 150.39C271.05 150.414 270.897 150.406 270.75 150.366C270.604 150.327 270.467 150.256 270.35 150.16C270.18 149.939 270.088 149.668 270.09 149.39C269.99 147.79 270.99 146.39 271.4 144.87C271.81 143.35 270.93 141.08 269.61 141.56C267.85 140.73 266.61 142 266.12 140.15C266.034 139.824 266.004 139.486 266.03 139.15C266.2 137.07 267.93 135.78 268.35 133.84C268.522 132.652 268.436 131.442 268.1 130.29C268.045 129.918 267.881 129.57 267.63 129.29C267.327 129.102 266.985 128.986 266.63 128.95C264.96 128.44 264.83 125.72 265.29 123.78C265.781 122.313 265.932 120.754 265.73 119.22C265.702 119.053 265.639 118.893 265.547 118.75C265.454 118.608 265.333 118.486 265.192 118.392C265.05 118.299 264.891 118.235 264.724 118.205C264.557 118.176 264.385 118.181 264.22 118.22C263.494 118.418 262.814 118.758 262.22 119.22C261.35 117.37 261.87 114.98 260.9 113.14C260.67 112.699 260.324 112.329 259.9 112.07C258.42 111.19 257.15 112.72 256.95 114.27C256.875 115.502 257.049 116.736 257.46 117.9C256.54 117.37 255.38 118.16 254.96 119.25C254.627 120.39 254.559 121.59 254.76 122.76C254.98 124.97 255.19 127.18 255.41 129.39C254.7 128.14 252.86 128.62 252.2 129.9C251.672 131.3 251.612 132.833 252.03 134.27C252.486 136.22 252.523 138.244 252.14 140.21C250.06 141.3 249.84 138.53 248.14 138.85C247.721 138.969 247.347 139.213 247.069 139.548C246.79 139.884 246.62 140.296 246.58 140.73C246.17 143.31 246.99 145.79 246.91 148.21C245.3 147.64 243.49 149.68 243.91 151.56C244.18 152.71 245.06 153.56 245.11 154.84C245.133 155.09 245.094 155.341 244.999 155.573C244.903 155.804 244.752 156.009 244.56 156.17C243.67 156.8 243.12 155.37 242.2 156.17C242.003 156.347 241.85 156.568 241.753 156.814C241.656 157.06 241.617 157.326 241.64 157.59C241.73 159.12 242.93 160.07 243.09 161.59C243.12 161.855 243.095 162.124 243.016 162.378C242.937 162.633 242.805 162.869 242.63 163.07C242.07 163.64 241.58 163.24 241.06 163.18C239.85 163.03 239.06 164.77 239.24 166.18C239.589 167.509 240.172 168.765 240.96 169.89C241.344 170.474 241.589 171.138 241.678 171.831C241.766 172.524 241.695 173.228 241.47 173.89C240.47 173.03 239.95 171.45 238.79 170.71C238.584 170.559 238.343 170.462 238.089 170.429C237.836 170.396 237.578 170.427 237.34 170.52C236.34 170.94 236.22 172.33 236.34 173.52C236.513 176.371 237.272 179.156 238.57 181.7C237.12 183.03 235.48 178.61 233.76 179.78C233.511 179.981 233.317 180.24 233.194 180.536C233.072 180.831 233.026 181.152 233.06 181.47C233.372 185.493 234.73 189.364 237 192.7C236.747 192.376 236.404 192.135 236.014 192.007C235.624 191.879 235.205 191.869 234.81 191.98C234.329 192.184 233.921 192.527 233.637 192.966C233.354 193.404 233.208 193.918 233.22 194.44C233.22 196 234.41 197.16 235.15 198.44C235.89 199.72 235.86 202.07 234.53 202.32C233.2 202.57 232.53 200.37 231.26 199.6C229.81 198.68 227.93 200.25 227.6 202.12C227.425 204.017 227.863 205.92 228.85 207.55C229.834 209.138 230.528 210.889 230.9 212.72L230.38 213.05C228.38 211.18 226.14 213.43 226.82 215.63C227.155 216.525 227.354 217.466 227.41 218.42L227.35 219.84C227.35 222.21 225.4 224.32 223.35 224.25C221.72 224.2 220.03 224.71 219.35 226.41C218.51 228.41 219.23 231.1 221.01 232.04C221.525 232.285 221.99 232.624 222.38 233.04C224 234.85 222.73 236.04 222.32 237.49C222.11 238.384 222.179 239.321 222.519 240.174C222.859 241.027 223.452 241.756 224.22 242.26C224.942 242.661 225.738 242.91 226.56 242.993C227.382 243.076 228.212 242.989 229 242.74C229.994 242.363 231.059 242.206 232.12 242.28C234.06 243.21 232.55 245.7 234.4 248C234.928 248.586 235.595 249.03 236.34 249.29C237.223 249.604 238.187 249.613 239.076 249.313C239.964 249.014 240.727 248.425 241.24 247.64C241.768 246.945 242.453 246.387 243.24 246.01C244.06 245.66 244.92 246.42 244.9 247.44C244.753 249.175 245.122 250.914 245.96 252.44C246.213 252.887 246.577 253.262 247.016 253.528C247.456 253.794 247.956 253.943 248.47 253.96C250.47 253.91 251.4 251.63 252.21 249.71C253.21 247.34 255.07 244.63 257.72 247.16C258.355 247.831 258.774 248.678 258.92 249.59C259.32 251.59 261.49 254.59 263.25 253.26C264.71 252.2 264.3 249.18 266.37 248.69C266.677 248.628 266.993 248.63 267.299 248.696C267.605 248.761 267.895 248.888 268.15 249.07C270.34 250.54 270.66 254.01 273.08 255.13C273.497 255.324 273.969 255.369 274.415 255.256C274.862 255.143 275.255 254.88 275.53 254.51C276.24 253.51 275.81 252.63 275.73 251.68C275.705 250.66 276.002 249.659 276.578 248.817C277.154 247.975 277.98 247.336 278.94 246.99C280.7 246.3 282.61 246.44 284.46 246.19C285.431 246.137 286.374 245.845 287.205 245.339C288.035 244.833 288.728 244.129 289.22 243.29C289.56 242.6 289.74 241.8 290.11 241.13C291.19 239.13 293.49 238.85 295.47 238.57C297.45 238.29 299.79 237.47 300.35 235.24C301 232.73 297.86 230.21 296 231.8Z" fill="#407BFF"/>
<g opacity="0.2">
<path d="M296 231.8L297.23 224.59C297.356 224.234 297.386 223.852 297.315 223.481C297.245 223.11 297.078 222.765 296.83 222.48C296.634 222.302 296.391 222.184 296.13 222.14C294.55 221.87 293.39 223.78 291.87 223.76C290.97 222.4 291.97 220.45 293.04 219.25C294.11 218.05 295.48 216.47 294.96 214.74C294.841 214.34 294.624 213.976 294.329 213.681C294.034 213.386 293.67 213.169 293.27 213.05C291.953 212.809 290.593 213.062 289.45 213.76C288.66 211.56 291.09 209.84 292.52 207.94C293.39 206.78 292.52 204.94 291.23 205.23L286.32 206.16C285.844 206.257 285.35 206.212 284.9 206.03C283.08 205.25 283.45 202.78 284.29 201.18C284.61 200.56 285 199.94 285.29 199.29C285.431 199.038 285.511 198.756 285.522 198.467C285.533 198.178 285.475 197.891 285.353 197.629C285.23 197.367 285.048 197.138 284.819 196.961C284.591 196.784 284.324 196.663 284.04 196.61C282.973 196.561 281.905 196.649 280.86 196.87C279.86 194.82 281.77 192.48 283.55 191.3C284.458 190.75 285.286 190.077 286.01 189.3C287.07 188.09 286.48 185.99 285.01 185.73L281.47 185.1C281.146 185.047 280.838 184.92 280.57 184.73C279.24 183.73 279.93 181.85 280.84 180.73C281.11 180.4 281.4 180.07 281.68 179.73C281.844 179.533 281.955 179.296 282 179.043C282.045 178.79 282.024 178.53 281.938 178.288C281.853 178.046 281.705 177.83 281.511 177.662C281.317 177.494 281.082 177.38 280.83 177.33L279.75 177.26C280.424 175.807 280.96 174.294 281.35 172.74C281.83 170.82 280.35 169.02 278.68 169.46L276.43 170.05C276.143 170.139 275.836 170.139 275.55 170.05C275.366 169.95 275.21 169.807 275.095 169.633C274.979 169.458 274.909 169.258 274.89 169.05C274.29 166.12 279.06 164.56 278.53 161.62C278.15 159.47 275.53 159.44 273.69 159.95C273.83 157.203 274.255 154.479 274.96 151.82C275.016 151.656 275.033 151.481 275.01 151.309C274.987 151.137 274.925 150.972 274.828 150.828C274.731 150.684 274.603 150.564 274.452 150.478C274.301 150.391 274.133 150.341 273.96 150.33L271.2 150.39C271.05 150.414 270.897 150.406 270.75 150.366C270.604 150.327 270.467 150.256 270.35 150.16C270.18 149.939 270.088 149.668 270.09 149.39C269.99 147.79 270.99 146.39 271.4 144.87C271.81 143.35 270.93 141.08 269.61 141.56C267.85 140.73 266.61 142 266.12 140.15C266.034 139.824 266.004 139.486 266.03 139.15C266.2 137.07 267.93 135.78 268.35 133.84C268.522 132.652 268.436 131.442 268.1 130.29C268.045 129.918 267.881 129.57 267.63 129.29C267.327 129.102 266.985 128.986 266.63 128.95C264.96 128.44 264.83 125.72 265.29 123.78C265.781 122.313 265.932 120.754 265.73 119.22C265.702 119.053 265.639 118.893 265.547 118.75C265.454 118.608 265.333 118.486 265.192 118.392C265.05 118.299 264.891 118.235 264.724 118.205C264.557 118.176 264.385 118.181 264.22 118.22C263.494 118.418 262.814 118.758 262.22 119.22C261.35 117.37 261.87 114.98 260.9 113.14C260.67 112.699 260.324 112.329 259.9 112.07C258.42 111.19 257.15 112.72 256.95 114.27C256.875 115.502 257.049 116.736 257.46 117.9C256.54 117.37 255.38 118.16 254.96 119.25C254.627 120.39 254.559 121.59 254.76 122.76C254.98 124.97 255.19 127.18 255.41 129.39C254.7 128.14 252.86 128.62 252.2 129.9C251.672 131.3 251.612 132.833 252.03 134.27C252.486 136.22 252.523 138.244 252.14 140.21C250.06 141.3 249.84 138.53 248.14 138.85C247.721 138.969 247.347 139.213 247.069 139.548C246.79 139.884 246.62 140.296 246.58 140.73C246.17 143.31 246.99 145.79 246.91 148.21C245.3 147.64 243.49 149.68 243.91 151.56C244.18 152.71 245.06 153.56 245.11 154.84C245.133 155.09 245.094 155.341 244.999 155.573C244.903 155.804 244.752 156.009 244.56 156.17C243.67 156.8 243.12 155.37 242.2 156.17C242.003 156.347 241.85 156.568 241.753 156.814C241.656 157.06 241.617 157.326 241.64 157.59C241.73 159.12 242.93 160.07 243.09 161.59C243.12 161.855 243.095 162.124 243.016 162.378C242.937 162.633 242.805 162.869 242.63 163.07C242.07 163.64 241.58 163.24 241.06 163.18C239.85 163.03 239.06 164.77 239.24 166.18C239.589 167.509 240.172 168.765 240.96 169.89C241.344 170.474 241.589 171.138 241.678 171.831C241.766 172.524 241.695 173.228 241.47 173.89C240.47 173.03 239.95 171.45 238.79 170.71C238.584 170.559 238.343 170.462 238.089 170.429C237.836 170.396 237.578 170.427 237.34 170.52C236.34 170.94 236.22 172.33 236.34 173.52C236.513 176.371 237.272 179.156 238.57 181.7C237.12 183.03 235.48 178.61 233.76 179.78C233.511 179.981 233.317 180.24 233.194 180.536C233.072 180.831 233.026 181.152 233.06 181.47C233.372 185.493 234.73 189.364 237 192.7C236.747 192.376 236.404 192.135 236.014 192.007C235.624 191.879 235.205 191.869 234.81 191.98C234.329 192.184 233.921 192.527 233.637 192.966C233.354 193.404 233.208 193.918 233.22 194.44C233.22 196 234.41 197.16 235.15 198.44C235.89 199.72 235.86 202.07 234.53 202.32C233.2 202.57 232.53 200.37 231.26 199.6C229.81 198.68 227.93 200.25 227.6 202.12C227.425 204.017 227.863 205.92 228.85 207.55C229.834 209.138 230.528 210.889 230.9 212.72L230.38 213.05C228.38 211.18 226.14 213.43 226.82 215.63C227.155 216.525 227.354 217.466 227.41 218.42L227.35 219.84C227.35 222.21 225.4 224.32 223.35 224.25C221.72 224.2 220.03 224.71 219.35 226.41C218.51 228.41 219.23 231.1 221.01 232.04C221.525 232.285 221.99 232.624 222.38 233.04C224 234.85 222.73 236.04 222.32 237.49C222.11 238.384 222.179 239.321 222.519 240.174C222.859 241.027 223.452 241.756 224.22 242.26C224.942 242.661 225.738 242.91 226.56 242.993C227.382 243.076 228.212 242.989 229 242.74C229.994 242.363 231.059 242.206 232.12 242.28C234.06 243.21 232.55 245.7 234.4 248C234.928 248.586 235.595 249.03 236.34 249.29C237.223 249.604 238.187 249.613 239.076 249.313C239.964 249.014 240.727 248.425 241.24 247.64C241.768 246.945 242.453 246.387 243.24 246.01C244.06 245.66 244.92 246.42 244.9 247.44C244.753 249.175 245.122 250.914 245.96 252.44C246.213 252.887 246.577 253.262 247.016 253.528C247.456 253.794 247.956 253.943 248.47 253.96C250.47 253.91 251.4 251.63 252.21 249.71C253.21 247.34 255.07 244.63 257.72 247.16C258.355 247.831 258.774 248.678 258.92 249.59C259.32 251.59 261.49 254.59 263.25 253.26C264.71 252.2 264.3 249.18 266.37 248.69C266.677 248.628 266.993 248.63 267.299 248.696C267.605 248.761 267.895 248.888 268.15 249.07C270.34 250.54 270.66 254.01 273.08 255.13C273.497 255.324 273.969 255.369 274.415 255.256C274.862 255.143 275.255 254.88 275.53 254.51C276.24 253.51 275.81 252.63 275.73 251.68C275.705 250.66 276.002 249.659 276.578 248.817C277.154 247.975 277.98 247.336 278.94 246.99C280.7 246.3 282.61 246.44 284.46 246.19C285.431 246.137 286.374 245.845 287.205 245.339C288.035 244.833 288.728 244.129 289.22 243.29C289.56 242.6 289.74 241.8 290.11 241.13C291.19 239.13 293.49 238.85 295.47 238.57C297.45 238.29 299.79 237.47 300.35 235.24C301 232.73 297.86 230.21 296 231.8Z" fill="black"/>
</g>
<path d="M49.18 305.63C49.18 305.63 98.51 270.16 102.69 267.56C106.87 264.96 213.89 256.94 221.41 258.86C228.93 260.78 368.57 305.1 371.08 305.93C373.59 306.76 49.18 305.63 49.18 305.63Z" fill="#407BFF"/>
<path opacity="0.2" d="M49.18 305.63C49.18 305.63 98.51 270.16 102.69 267.56C106.87 264.96 213.89 256.94 221.41 258.86C228.93 260.78 368.57 305.1 371.08 305.93C373.59 306.76 49.18 305.63 49.18 305.63Z" fill="black"/>
<path d="M209.43 248.89C206.708 250.138 204.371 252.092 202.66 254.55C201.342 252.068 200.53 249.348 200.27 246.55C198.318 249.241 197.513 252.596 198.03 255.88L190.55 251.19C193.04 254.444 195.06 258.033 196.55 261.85L208.68 262.85C207.591 258.221 207.852 253.376 209.43 248.89Z" fill="#407BFF"/>
<g opacity="0.2">
<path d="M209.43 248.89C206.708 250.138 204.371 252.092 202.66 254.55C201.342 252.068 200.53 249.348 200.27 246.55C198.318 249.241 197.513 252.596 198.03 255.88L190.55 251.19C193.04 254.444 195.06 258.033 196.55 261.85L208.68 262.85C207.591 258.221 207.852 253.376 209.43 248.89Z" fill="black"/>
</g>
</svg>
