<svg width="750" height="331" viewBox="0 0 750 331" fill="none" xmlns="http://www.w3.org/2000/svg">
<path d="M673.73 275.46H493C491.447 275.457 489.958 274.839 488.859 273.741C487.761 272.642 487.143 271.153 487.14 269.6V6.31999C487.143 4.76664 487.761 3.27766 488.859 2.17927C489.958 1.08088 491.447 0.462635 493 0.459991H673.73C675.285 0.459989 676.777 1.07706 677.877 2.17574C678.978 3.27442 679.597 4.7649 679.6 6.31999V269.6C679.597 271.155 678.978 272.646 677.877 273.744C676.777 274.843 675.285 275.46 673.73 275.46ZM493 0.709991C491.512 0.709991 490.085 1.30104 489.033 2.35312C487.981 3.4052 487.39 4.83213 487.39 6.31999V269.6C487.39 271.088 487.981 272.515 489.033 273.567C490.085 274.619 491.512 275.21 493 275.21H673.73C675.219 275.21 676.647 274.619 677.7 273.567C678.754 272.516 679.347 271.089 679.35 269.6V6.31999C679.347 4.83121 678.754 3.40431 677.7 2.35252C676.647 1.30072 675.219 0.709989 673.73 0.709991H493Z" fill="#E0E0E0"/>
<path d="M465.31 275.46H284.56C283.007 275.457 281.518 274.839 280.419 273.741C279.321 272.642 278.703 271.153 278.7 269.6V6.31999C278.703 4.76664 279.321 3.27766 280.419 2.17927C281.518 1.08088 283.007 0.462635 284.56 0.459991H465.31C466.863 0.462635 468.352 1.08088 469.451 2.17927C470.549 3.27766 471.167 4.76664 471.17 6.31999V269.6C471.167 271.153 470.549 272.642 469.451 273.741C468.352 274.839 466.863 275.457 465.31 275.46ZM284.56 0.709991C283.082 0.725773 281.669 1.32347 280.628 2.37356C279.588 3.42365 279.002 4.84155 279 6.31999V269.6C279.003 271.087 279.594 272.512 280.646 273.564C281.698 274.615 283.123 275.207 284.61 275.21H465.31C466.797 275.207 468.222 274.615 469.274 273.564C470.325 272.512 470.917 271.087 470.92 269.6V6.31999C470.917 4.83294 470.325 3.40755 469.274 2.35604C468.222 1.30454 466.797 0.712635 465.31 0.709991H284.56Z" fill="#E0E0E0"/>
<path d="M257 275.46H76.27C74.7149 275.46 73.2234 274.843 72.1228 273.744C71.0223 272.646 70.4027 271.155 70.4 269.6V6.31999C70.4027 4.7649 71.0223 3.27442 72.1228 2.17574C73.2234 1.07706 74.7149 0.459989 76.27 0.459991H257C258.553 0.462635 260.042 1.08088 261.141 2.17927C262.239 3.27766 262.857 4.76664 262.86 6.31999V269.6C262.857 271.153 262.239 272.642 261.141 273.741C260.042 274.839 258.553 275.457 257 275.46ZM76.27 0.709991C74.7812 0.709989 73.3533 1.30072 72.2996 2.35252C71.2459 3.40431 70.6527 4.83121 70.65 6.31999V269.6C70.6527 271.089 71.2459 272.516 72.2996 273.567C73.3533 274.619 74.7812 275.21 76.27 275.21H257C258.488 275.21 259.915 274.619 260.967 273.567C262.019 272.515 262.61 271.088 262.61 269.6V6.31999C262.61 4.83213 262.019 3.4052 260.967 2.35312C259.915 1.30104 258.488 0.709991 257 0.709991H76.27Z" fill="#E0E0E0"/>
<path d="M750 306.77H0V306.89H750V306.77Z" fill="#E0E0E0"/>
<path d="M437.22 100.52C435.672 99.3907 433.832 98.73 431.919 98.6166C430.006 98.5031 428.101 98.9416 426.43 99.88C422.05 91.04 409.86 87.14 401.16 91.8C400.015 86.9906 397.267 82.714 393.369 79.6731C389.471 76.6321 384.655 75.0078 379.711 75.0672C374.768 75.1265 369.991 76.8659 366.167 79.9996C362.344 83.1332 359.7 87.4745 358.67 92.31C358.35 93.83 358.13 95.5 357.04 96.61C355.27 98.42 352.32 97.81 349.8 97.61C345.814 97.4025 341.874 98.5299 338.601 100.814C335.328 103.098 332.91 106.408 331.73 110.22L440.96 109.82C441.92 106.13 440.27 102.82 437.22 100.52Z" fill="#F0F0F0"/>
<path d="M295.46 48.9C294.168 47.9578 292.633 47.4076 291.037 47.3154C289.44 47.2232 287.852 47.5928 286.46 48.38C282.81 41 272.63 37.74 265.37 41.63C264.416 37.6139 262.124 34.042 258.87 31.5018C255.616 28.9616 251.595 27.6044 247.467 27.6532C243.339 27.7021 239.351 29.1542 236.159 31.7707C232.966 34.3873 230.759 38.0124 229.9 42.05C229.63 43.32 229.45 44.72 228.54 45.65C227.06 47.15 224.6 46.65 222.49 46.48C219.164 46.3094 215.875 47.2506 213.143 49.1554C210.411 51.0601 208.39 53.82 207.4 57L298.58 56.67C299.38 53.59 298 50.83 295.46 48.9Z" fill="#F0F0F0"/>
<path d="M503.76 43.69C502.996 43.134 502.089 42.8092 501.146 42.7542C500.202 42.6993 499.263 42.9165 498.44 43.38C497.281 41.2368 495.338 39.6241 493.019 38.8788C490.699 38.1335 488.181 38.313 485.99 39.38C485.425 37.012 484.071 34.9067 482.151 33.4097C480.231 31.9128 477.859 31.1132 475.425 31.1422C472.991 31.1713 470.639 32.0274 468.755 33.5697C466.872 35.1121 465.569 37.2492 465.06 39.63C464.994 40.3968 464.717 41.1305 464.26 41.75C463.38 42.64 461.93 42.34 460.69 42.24C458.726 42.1379 456.784 42.693 455.17 43.8175C453.557 44.9421 452.364 46.572 451.78 48.45L505.6 48.26C505.797 47.4015 505.726 46.5033 505.397 45.6862C505.068 44.8691 504.497 44.1725 503.76 43.69Z" fill="#F0F0F0"/>
<path d="M705.55 81.34C704.79 80.7802 703.883 80.453 702.941 80.398C701.998 80.3429 701.06 80.5625 700.24 81.03C699.077 78.8904 697.135 77.281 694.816 76.5361C692.498 75.7912 689.982 75.9681 687.79 77.03C687.22 74.6645 685.864 72.5626 683.944 71.0684C682.024 69.5742 679.653 68.7763 677.22 68.8054C674.787 68.8344 672.436 69.6887 670.552 71.2283C668.668 72.7679 667.363 74.9016 666.85 77.28C666.79 78.0483 666.513 78.7836 666.05 79.4C665.18 80.29 663.72 79.99 662.48 79.9C660.517 79.795 658.574 80.349 656.962 81.4741C655.349 82.5993 654.159 84.231 653.58 86.11L707.39 85.91C707.593 85.0515 707.525 84.1512 707.196 83.3329C706.866 82.5146 706.291 81.8184 705.55 81.34Z" fill="#F0F0F0"/>
<path d="M103.81 84.68C102.791 83.9339 101.578 83.4974 100.317 83.4229C99.0558 83.3484 97.8 83.6391 96.7 84.26C93.82 78.44 85.79 75.87 80.07 78.94C79.2509 75.8182 77.4318 73.0505 74.8908 71.0604C72.3499 69.0703 69.2271 67.9673 66 67.92C62.7593 68.0266 59.6434 69.1952 57.1319 71.246C54.6204 73.2968 52.8524 76.116 52.1 79.27C52.0002 80.2995 51.6197 81.2819 51 82.11C49.83 83.3 47.89 82.9 46.23 82.77C43.6057 82.6323 41.0105 83.3739 38.8551 84.8772C36.6998 86.3805 35.1074 88.5598 34.33 91.07L106.24 90.81C106.514 89.6623 106.428 88.4581 105.993 87.3612C105.558 86.2643 104.796 85.3281 103.81 84.68Z" fill="#F0F0F0"/>
<path d="M468.83 276C468.83 276 494.36 259.93 514.49 256.43C534.62 252.93 698.17 275.55 698.17 275.55L468.83 276Z" fill="#E6E6E6"/>
<path d="M656.94 231.65L646.18 233.19C646.18 233.19 646.11 263.32 645.73 267.03C645.35 270.74 640.21 274.45 640.21 274.45H660.42C655.17 265.49 656.94 231.65 656.94 231.65Z" fill="#E6E6E6"/>
<path d="M688.48 224.52C688.9 222.02 689.327 219.52 689.76 217.02C689.893 216.652 689.925 216.254 689.853 215.869C689.781 215.484 689.607 215.125 689.35 214.83C689.139 214.649 688.884 214.528 688.61 214.48C686.97 214.2 685.77 216.18 684.19 216.17C683.25 214.75 684.29 212.73 685.4 211.48C686.51 210.23 687.94 208.59 687.4 206.79C687.275 206.374 687.049 205.996 686.741 205.689C686.434 205.381 686.056 205.155 685.64 205.03C684.27 204.62 682.94 205.2 681.64 205.77C680.82 203.49 683.34 201.7 684.82 199.77C685.73 198.56 684.82 196.7 683.48 196.95L678.39 197.95C677.892 198.057 677.372 198.012 676.9 197.82C675.01 197.01 675.4 194.45 676.27 192.82C676.61 192.17 677.01 191.53 677.34 190.82C677.486 190.558 677.568 190.264 677.579 189.964C677.59 189.664 677.529 189.365 677.402 189.093C677.275 188.821 677.086 188.583 676.849 188.398C676.612 188.213 676.335 188.087 676.04 188.03C674.933 187.98 673.824 188.071 672.74 188.3C671.66 186.17 673.68 183.74 675.54 182.52C676.484 181.935 677.345 181.225 678.1 180.41C679.19 179.15 678.58 176.97 677.1 176.7L673.43 176.04C673.091 175.988 672.769 175.858 672.49 175.66C671.11 174.66 671.83 172.66 672.77 171.51C673.05 171.16 673.36 170.81 673.64 170.45C673.809 170.245 673.923 170 673.969 169.738C674.016 169.476 673.993 169.207 673.905 168.956C673.816 168.705 673.664 168.482 673.464 168.307C673.263 168.133 673.021 168.013 672.76 167.96L671.63 167.89C672.336 166.38 672.895 164.807 673.3 163.19C673.79 161.19 672.3 159.32 670.52 159.78L668.19 160.39C667.895 160.49 667.575 160.49 667.28 160.39C667.092 160.291 666.93 160.149 666.809 159.975C666.687 159.801 666.608 159.6 666.58 159.39C665.96 156.39 670.92 154.73 670.37 151.67C669.97 149.44 667.25 149.41 665.37 149.93C665.517 147.079 665.959 144.25 666.69 141.49C666.748 141.322 666.768 141.143 666.747 140.966C666.726 140.79 666.665 140.62 666.568 140.471C666.472 140.322 666.343 140.196 666.19 140.104C666.038 140.012 665.867 139.956 665.69 139.94L662.82 140C662.665 140.025 662.506 140.016 662.354 139.975C662.202 139.933 662.061 139.86 661.94 139.76C661.767 139.529 661.672 139.249 661.67 138.96C661.57 137.3 662.61 135.86 663.03 134.27C663.45 132.68 662.54 130.33 661.18 130.83C659.34 129.96 658.08 131.28 657.55 129.36C657.453 129.012 657.419 128.65 657.45 128.29C657.63 126.13 659.45 124.79 659.87 122.77C660.045 121.535 659.953 120.277 659.6 119.08C659.552 118.675 659.381 118.295 659.11 117.99C658.806 117.803 658.465 117.683 658.11 117.64C656.37 117.11 656.23 114.29 656.72 112.27C657.23 110.745 657.384 109.124 657.17 107.53C657.137 107.359 657.07 107.196 656.972 107.052C656.874 106.908 656.748 106.785 656.601 106.692C656.454 106.598 656.289 106.535 656.117 106.508C655.945 106.48 655.769 106.487 655.6 106.53C654.873 106.76 654.195 107.122 653.6 107.6C652.7 105.68 653.24 103.2 652.24 101.28C652.011 100.828 651.666 100.445 651.24 100.17C649.69 99.26 648.38 100.85 648.17 102.46C648.091 103.74 648.272 105.022 648.7 106.23C647.7 105.68 646.54 106.5 646.11 107.63C645.758 108.817 645.686 110.07 645.9 111.29C646.12 113.58 646.34 115.88 646.57 118.17C645.83 116.88 643.92 117.37 643.24 118.7C642.684 120.153 642.62 121.748 643.06 123.24C643.4 124.9 643.71 127.77 643.17 129.41C641.01 130.55 640.79 127.66 639.05 128C638.608 128.128 638.215 128.388 637.926 128.745C637.636 129.103 637.463 129.541 637.43 130C637 132.67 637.85 135.25 637.77 137.76C636.1 137.18 634.22 139.29 634.67 141.25C634.95 142.45 635.87 143.34 635.93 144.65C635.951 144.91 635.91 145.171 635.809 145.411C635.708 145.651 635.551 145.864 635.35 146.03C634.42 146.69 633.85 145.21 632.9 146.03C632.694 146.214 632.534 146.444 632.433 146.701C632.333 146.958 632.294 147.235 632.32 147.51C632.41 149.09 633.66 150.09 633.82 151.65C633.854 151.925 633.829 152.203 633.746 152.467C633.664 152.731 633.525 152.974 633.34 153.18C632.76 153.77 632.25 153.36 631.72 153.29C630.46 153.14 629.59 154.95 629.82 156.39C630.182 157.773 630.788 159.08 631.61 160.25C632.28 161.49 632.77 163.12 632.14 164.4C631.04 163.51 630.56 161.87 629.35 161.1C629.136 160.942 628.885 160.841 628.621 160.806C628.357 160.771 628.088 160.803 627.84 160.9C626.84 161.34 626.68 162.78 626.75 163.97C626.936 166.929 627.726 169.818 629.07 172.46C627.57 173.85 625.86 169.25 624.07 170.46C623.808 170.664 623.603 170.933 623.475 171.239C623.347 171.546 623.301 171.88 623.34 172.21C623.595 176.418 624.954 180.484 627.28 184C627.017 183.664 626.66 183.413 626.254 183.279C625.848 183.146 625.412 183.136 625 183.25C624.498 183.46 624.072 183.817 623.778 184.274C623.483 184.731 623.334 185.267 623.35 185.81C623.35 187.43 624.59 188.64 625.35 190C626.11 191.36 626.08 193.77 624.7 194C623.32 194.23 622.58 192 621.3 191.17C619.8 190.17 617.84 191.84 617.5 193.79C617.319 195.759 617.771 197.735 618.79 199.43C619.817 201.079 620.541 202.897 620.93 204.8L620.39 205.15C618.26 203.2 615.98 205.54 616.69 207.82C617.041 208.75 617.246 209.728 617.3 210.72L617.24 212.2C617.24 214.67 615.24 216.86 613.09 216.79C611.4 216.73 609.64 217.26 608.9 219.03C608.03 221.08 608.77 223.91 610.63 224.87C611.157 225.12 611.637 225.458 612.05 225.87C613.73 227.75 612.41 229.01 611.98 230.49C611.765 231.421 611.841 232.395 612.199 233.281C612.557 234.166 613.179 234.92 613.98 235.44C614.734 235.863 615.567 236.126 616.428 236.212C617.288 236.298 618.157 236.205 618.98 235.94C620.017 235.55 621.125 235.39 622.23 235.47C624.23 236.47 622.67 239.02 624.6 241.41C625.144 242.017 625.832 242.477 626.6 242.75C628.88 243.48 630.43 242.57 631.69 241.03C632.237 240.315 632.942 239.737 633.75 239.34C634.6 238.98 635.5 239.77 635.48 240.83C635.314 242.64 635.694 244.458 636.57 246.05C636.834 246.514 637.213 246.903 637.669 247.18C638.126 247.456 638.646 247.611 639.18 247.63C641.18 247.63 642.23 245.21 643.06 243.21C644.06 240.74 646.06 237.93 648.79 240.56C649.452 241.255 649.887 242.133 650.04 243.08C650.46 245.19 652.71 248.23 654.54 246.9C656.05 245.79 655.63 242.66 657.78 242.15C658.099 242.084 658.429 242.086 658.747 242.155C659.066 242.223 659.367 242.358 659.63 242.55C661.9 244.07 662.23 247.67 664.75 248.84C665.18 249.057 665.673 249.111 666.139 248.994C666.606 248.876 667.014 248.594 667.29 248.2C668.04 247.2 667.59 246.2 667.5 245.2C667.48 244.141 667.791 243.103 668.39 242.23C668.989 241.357 669.845 240.692 670.84 240.33C672.67 239.62 674.66 239.76 676.58 239.5C677.587 239.446 678.565 239.143 679.426 238.62C680.288 238.096 681.007 237.368 681.52 236.5C681.88 235.78 682.06 234.95 682.45 234.25C683.57 232.25 685.95 231.89 688.02 231.59C690.09 231.29 692.5 230.45 693.09 228.14C693.61 225.48 690.4 222.87 688.48 224.52Z" fill="#E6E6E6"/>
<path d="M558.11 210.75L543.11 212.89C543.11 212.89 543.02 254.89 542.48 260.09C541.94 265.29 534.79 270.43 534.79 270.43H563C555.65 257.93 558.11 210.75 558.11 210.75Z" fill="#E6E6E6"/>
<path d="M602.09 200.8C602.677 197.32 603.27 193.837 603.87 190.35C604.05 189.35 604.22 188.13 603.3 187.35C603.02 187.095 602.673 186.925 602.3 186.86C600.02 186.47 598.3 189.23 596.14 189.21C594.83 187.21 596.28 184.41 597.83 182.68C599.38 180.95 601.36 178.68 600.61 176.14C600.441 175.558 600.128 175.028 599.7 174.6C599.272 174.171 598.742 173.858 598.16 173.69C596.24 173.12 594.4 173.92 592.63 174.69C591.49 171.52 595.01 169.02 597.08 166.27C598.34 164.58 597.08 161.98 595.21 162.34L588.1 163.68C587.407 163.826 586.687 163.763 586.03 163.5C583.39 162.37 583.94 158.8 585.15 156.5C585.62 155.6 586.15 154.7 586.64 153.77C587.47 152.1 586.5 149.95 584.83 149.88C583.287 149.806 581.74 149.934 580.23 150.26C578.72 147.26 581.54 143.89 584.13 142.19C585.448 141.376 586.649 140.387 587.7 139.25C589.23 137.49 588.37 134.45 586.24 134.07L581.11 133.16C580.641 133.089 580.195 132.907 579.81 132.63C577.88 131.23 578.88 128.46 580.2 126.84C580.59 126.35 581.02 125.84 581.41 125.37C582.41 124.08 581.69 121.98 580.18 121.89L578.62 121.8C579.6 119.69 580.374 117.49 580.93 115.23C581.63 112.46 579.49 109.84 577.07 110.48L573.81 111.34C573.403 111.494 572.957 111.512 572.54 111.39C572.273 111.254 572.043 111.055 571.869 110.812C571.695 110.568 571.582 110.286 571.54 109.99C570.68 105.75 577.6 103.5 576.83 99.23C576.27 96.12 572.48 96.08 569.83 96.81C570.021 92.8211 570.627 88.8629 571.64 85C571.721 84.7656 571.748 84.5159 571.719 84.2695C571.69 84.0231 571.605 83.7866 571.472 83.5777C571.338 83.3687 571.158 83.1929 570.947 83.0634C570.735 82.9339 570.497 82.8541 570.25 82.83L566.25 82.92C566.035 82.9531 565.815 82.9409 565.605 82.8841C565.395 82.8272 565.199 82.7271 565.03 82.59C564.784 82.2687 564.65 81.875 564.65 81.47C564.51 79.15 565.96 77.15 566.54 74.93C567.12 72.71 565.87 69.44 563.96 70.13C561.41 68.93 559.64 70.77 558.9 68.13C558.768 67.6416 558.721 67.1343 558.76 66.63C559.02 63.63 561.52 61.76 562.13 58.94C562.377 57.22 562.25 55.467 561.76 53.8C561.701 53.2308 561.463 52.6951 561.08 52.27C560.641 52.0051 560.15 51.838 559.64 51.78C557.21 51.05 557.03 47.11 557.7 44.3C558.21 42.16 558.84 39.66 558.33 37.68C558.286 37.4404 558.192 37.2125 558.056 37.0104C557.92 36.8083 557.744 36.6363 557.539 36.5051C557.333 36.3738 557.103 36.2861 556.863 36.2474C556.622 36.2087 556.376 36.2198 556.14 36.28C555.108 36.5924 554.144 37.098 553.3 37.77C552.04 35.09 552.8 31.63 551.39 28.96C551.073 28.3257 550.589 27.7898 549.99 27.41C547.84 26.15 545.99 28.35 545.71 30.61C545.601 32.392 545.853 34.1775 546.45 35.86C545.12 35.09 543.45 36.24 542.83 37.86C542.347 39.5158 542.247 41.2601 542.54 42.96C542.86 46.16 543.173 49.36 543.48 52.56C542.48 50.75 539.79 51.44 538.84 53.3C537.89 55.16 538.16 57.52 538.59 59.63C539.06 61.94 539.49 65.95 538.74 68.23C535.74 69.82 535.42 65.8 533 66.23C532.391 66.401 531.848 66.7524 531.443 67.2379C531.038 67.7235 530.789 68.3204 530.73 68.95C530.14 72.68 531.32 76.28 531.21 79.78C528.88 78.96 526.21 81.91 526.9 84.64C527.28 86.31 528.56 87.56 528.64 89.39C528.671 89.7517 528.613 90.1155 528.472 90.4499C528.331 90.7844 528.11 91.0796 527.83 91.31C526.55 92.23 525.75 90.16 524.42 91.25C524.134 91.5087 523.912 91.8304 523.771 92.1896C523.631 92.5488 523.575 92.9358 523.61 93.32C523.74 95.53 525.48 96.91 525.7 99.08C525.749 99.4639 525.714 99.8538 525.599 100.223C525.483 100.592 525.289 100.932 525.03 101.22C524.23 102.05 523.52 101.48 522.77 101.38C521.01 101.17 519.77 103.69 520.12 105.7C520.47 107.71 521.67 109.35 522.62 111.08C523.57 112.81 524.23 115.08 523.35 116.87C521.83 115.63 521.16 113.34 519.47 112.26C519.169 112.046 518.821 111.909 518.455 111.86C518.089 111.811 517.716 111.852 517.37 111.98C515.93 112.61 515.75 114.61 515.85 116.26C516.117 120.352 517.216 124.347 519.08 128C516.97 129.94 514.6 123.52 512.08 125.23C511.722 125.523 511.443 125.9 511.268 126.328C511.094 126.756 511.029 127.221 511.08 127.68C511.44 133.546 513.333 139.215 516.57 144.12C516.199 143.659 515.7 143.319 515.136 143.141C514.572 142.963 513.968 142.956 513.4 143.12C512.703 143.413 512.111 143.91 511.701 144.545C511.29 145.18 511.081 145.924 511.1 146.68C511.1 148.95 512.83 150.68 513.9 152.53C514.97 154.38 514.9 157.78 512.99 158.15C511.08 158.52 509.99 155.32 508.26 154.2C506.16 152.88 503.44 155.14 502.96 157.86C502.48 160.58 503.54 163.33 504.76 165.72C505.98 168.11 507.4 170.47 507.76 173.21L507.01 173.7C504.01 170.98 500.85 174.24 501.85 177.43C502.325 178.715 502.612 180.063 502.7 181.43L502.61 183.49C502.55 186.93 499.78 189.98 496.83 189.88C494.46 189.8 492.02 190.54 490.98 193C489.77 195.87 490.8 199.81 493.39 201.16C494.142 201.513 494.82 202.005 495.39 202.61C497.74 205.23 495.9 206.98 495.3 209.05C494.983 210.346 495.071 211.707 495.554 212.951C496.037 214.194 496.891 215.259 498 216C499.047 216.582 500.201 216.944 501.393 217.064C502.584 217.184 503.788 217.06 504.93 216.7C506.43 216.33 507.93 215.7 509.45 216.03C512.26 217.38 510.07 221.03 512.76 224.32C513.523 225.167 514.486 225.809 515.56 226.19C518.74 227.19 520.91 225.94 522.66 223.8C523.422 222.802 524.404 221.995 525.53 221.44C526.72 220.93 527.97 222.03 527.94 223.51C527.89 226.06 528.09 228.62 529.47 230.79C529.835 231.437 530.361 231.98 530.997 232.365C531.633 232.751 532.357 232.966 533.1 232.99C535.94 232.92 537.35 229.62 538.52 226.83C539.96 223.39 542.67 219.46 546.52 223.14C547.452 224.105 548.063 225.334 548.27 226.66C548.85 229.6 552 233.83 554.55 231.97C556.65 230.44 556.06 226.06 559.06 225.35C559.505 225.258 559.965 225.261 560.409 225.357C560.854 225.454 561.273 225.642 561.64 225.91C564.81 228.03 565.27 233.05 568.78 234.68C569.382 234.972 570.068 235.043 570.717 234.88C571.366 234.717 571.937 234.331 572.33 233.79C573.33 232.41 572.74 231.06 572.62 229.68C572.34 226.57 574.71 223.87 577.27 222.88C579.83 221.89 582.59 222.09 585.27 221.73C587.95 221.37 590.82 220.24 592.16 217.53C592.66 216.53 592.91 215.37 593.45 214.4C595.02 211.56 598.34 211.1 601.22 210.68C604.1 210.26 607.47 209.1 608.3 205.87C609.24 202.15 604.76 198.51 602.09 200.8Z" fill="#E6E6E6"/>
<path d="M709.36 325.2H653.63V325.62H709.36V325.2Z" fill="#EBEBEB"/>
<path d="M509.67 329.77H495.04V330.19H509.67V329.77Z" fill="#EBEBEB"/>
<path d="M113.31 312.4H40.64V312.82H113.31V312.4Z" fill="#EBEBEB"/>
<path d="M138.96 312.4H128.3V312.82H138.96V312.4Z" fill="#EBEBEB"/>
<path d="M331.2 319.51H173.59V319.93H331.2V319.51Z" fill="#EBEBEB"/>
<path d="M719.29 275.81H22.29C22.2237 275.81 22.1601 275.784 22.1133 275.737C22.0664 275.69 22.04 275.626 22.04 275.56C22.04 275.494 22.0664 275.43 22.1133 275.383C22.1601 275.336 22.2237 275.31 22.29 275.31H719.29C719.356 275.31 719.42 275.336 719.467 275.383C719.514 275.43 719.54 275.494 719.54 275.56C719.54 275.626 719.514 275.69 719.467 275.737C719.42 275.784 719.356 275.81 719.29 275.81Z" fill="black"/>
<path d="M660.88 42.34C660.88 44.99 657.04 47.1 656.38 49.55C655.72 52 657.95 55.83 656.67 58.04C655.39 60.25 650.99 60.21 649.17 62.04C647.35 63.87 647.42 68.25 645.17 69.55C642.92 70.85 639.17 68.55 636.68 69.25C634.19 69.95 632.11 73.75 629.46 73.75C626.81 73.75 624.69 69.91 622.25 69.25C619.81 68.59 615.97 70.84 613.75 69.55C611.53 68.26 611.59 63.86 609.75 62.04C607.91 60.22 603.54 60.31 602.24 58.04C600.94 55.77 603.24 52.04 602.53 49.53C601.82 47.02 598.04 44.98 598.04 42.32C598.04 39.66 601.88 37.56 602.53 35.11C603.18 32.66 600.96 28.83 602.24 26.62C603.52 24.41 607.92 24.45 609.75 22.62C611.58 20.79 611.49 16.41 613.75 15.11C616.01 13.81 619.75 16.11 622.25 15.4C624.75 14.69 626.81 10.91 629.46 10.91C632.11 10.91 634.23 14.75 636.68 15.4C639.13 16.05 642.95 13.83 645.17 15.11C647.39 16.39 647.33 20.79 649.17 22.62C651.01 24.45 655.37 24.36 656.67 26.62C657.97 28.88 655.67 32.62 656.38 35.11C657.09 37.6 660.88 39.69 660.88 42.34Z" fill="#407BFF"/>
<g opacity="0.8">
<path d="M660.88 42.34C660.88 44.99 657.04 47.1 656.38 49.55C655.72 52 657.95 55.83 656.67 58.04C655.39 60.25 650.99 60.21 649.17 62.04C647.35 63.87 647.42 68.25 645.17 69.55C642.92 70.85 639.17 68.55 636.68 69.25C634.19 69.95 632.11 73.75 629.46 73.75C626.81 73.75 624.69 69.91 622.25 69.25C619.81 68.59 615.97 70.84 613.75 69.55C611.53 68.26 611.59 63.86 609.75 62.04C607.91 60.22 603.54 60.31 602.24 58.04C600.94 55.77 603.24 52.04 602.53 49.53C601.82 47.02 598.04 44.98 598.04 42.32C598.04 39.66 601.88 37.56 602.53 35.11C603.18 32.66 600.96 28.83 602.24 26.62C603.52 24.41 607.92 24.45 609.75 22.62C611.58 20.79 611.49 16.41 613.75 15.11C616.01 13.81 619.75 16.11 622.25 15.4C624.75 14.69 626.81 10.91 629.46 10.91C632.11 10.91 634.23 14.75 636.68 15.4C639.13 16.05 642.95 13.83 645.17 15.11C647.39 16.39 647.33 20.79 649.17 22.62C651.01 24.45 655.37 24.36 656.67 26.62C657.97 28.88 655.67 32.62 656.38 35.11C657.09 37.6 660.88 39.69 660.88 42.34Z" fill="white"/>
</g>
<path d="M634.848 64.1571C647.118 62.1742 655.457 50.6204 653.474 38.3511C651.491 26.0818 639.937 17.743 627.668 19.7259C615.398 21.7088 607.06 33.2626 609.043 45.5319C611.025 57.8012 622.579 66.14 634.848 64.1571Z" fill="#407BFF"/>
<path opacity="0.5" d="M634.848 64.1571C647.118 62.1742 655.457 50.6204 653.474 38.3511C651.491 26.0818 639.937 17.743 627.668 19.7259C615.398 21.7088 607.06 33.2626 609.043 45.5319C611.025 57.8012 622.579 66.14 634.848 64.1571Z" fill="white"/>
<path d="M98.4901 215.25L89.1201 216.59C89.1201 216.59 89.0701 242.83 88.7301 246.07C88.3901 249.31 83.9301 252.53 83.9301 252.53H101.53C97.0001 244.72 98.4901 215.25 98.4901 215.25Z" fill="#263238"/>
<path d="M126 209L127.11 202.47C127.227 202.149 127.256 201.803 127.194 201.467C127.133 201.132 126.983 200.819 126.76 200.56C126.577 200.405 126.356 200.301 126.12 200.26C124.69 200.02 123.64 201.74 122.27 201.73C121.45 200.49 122.35 198.73 123.27 197.65C124.19 196.57 125.48 195.13 125.01 193.56C124.902 193.198 124.705 192.869 124.438 192.602C124.171 192.335 123.842 192.138 123.48 192.03C122.291 191.82 121.065 192.047 120.03 192.67C119.31 190.67 121.51 189.13 122.8 187.41C123.59 186.41 122.8 184.73 121.63 184.96L117.2 185.79C116.769 185.885 116.319 185.846 115.91 185.68C114.26 184.98 114.6 182.74 115.35 181.29C115.65 180.73 116 180.17 116.28 179.59C116.41 179.362 116.485 179.106 116.496 178.844C116.508 178.582 116.457 178.321 116.348 178.082C116.238 177.843 116.073 177.634 115.867 177.472C115.66 177.31 115.418 177.2 115.16 177.15C114.194 177.11 113.226 177.19 112.28 177.39C111.34 175.53 113.1 173.39 114.72 172.39C115.539 171.883 116.286 171.268 116.94 170.56C117.162 170.309 117.318 170.007 117.393 169.681C117.469 169.354 117.46 169.014 117.37 168.691C117.279 168.369 117.109 168.074 116.875 167.835C116.641 167.595 116.35 167.418 116.03 167.32L112.83 166.75C112.538 166.704 112.261 166.591 112.02 166.42C110.81 165.55 111.44 163.82 112.26 162.8C112.5 162.5 112.77 162.2 113.02 161.89C113.168 161.71 113.267 161.496 113.307 161.267C113.347 161.038 113.328 160.802 113.251 160.583C113.173 160.363 113.04 160.168 112.865 160.015C112.69 159.862 112.478 159.757 112.25 159.71L111.25 159.66C111.865 158.344 112.351 156.97 112.7 155.56C113.13 153.83 111.8 152.19 110.29 152.56L108.29 153.09C108.034 153.175 107.757 153.175 107.5 153.09C107.337 153.001 107.196 152.875 107.09 152.722C106.985 152.57 106.916 152.394 106.89 152.21C106.35 149.56 110.67 148.15 110.19 145.49C109.84 143.55 107.48 143.49 105.82 143.98C105.96 141.519 106.355 139.079 107 136.7C107.055 136.554 107.075 136.397 107.058 136.242C107.042 136.087 106.989 135.937 106.905 135.806C106.82 135.675 106.706 135.565 106.572 135.486C106.437 135.407 106.286 135.36 106.13 135.35L103.62 135.4C103.486 135.418 103.349 135.409 103.218 135.373C103.088 135.337 102.966 135.275 102.86 135.19C102.702 134.991 102.617 134.744 102.62 134.49C102.53 133.05 103.44 131.8 103.8 130.41C104.16 129.02 103.38 126.98 102.19 127.41C100.6 126.66 99.4901 127.81 99.0301 126.14C98.9486 125.834 98.9216 125.516 98.9501 125.2C99.1001 123.32 100.67 122.2 101.05 120.4C101.203 119.326 101.125 118.231 100.82 117.19C100.79 116.819 100.639 116.467 100.39 116.19C100.116 116.024 99.8088 115.921 99.4901 115.89C97.9801 115.43 97.8601 112.97 98.2801 111.21C98.7248 109.881 98.8615 108.469 98.6801 107.08C98.6505 106.931 98.5913 106.789 98.5057 106.664C98.4202 106.538 98.3102 106.431 98.1823 106.349C98.0543 106.266 97.9112 106.211 97.7613 106.185C97.6114 106.16 97.458 106.165 97.3101 106.2C96.6627 106.398 96.0587 106.717 95.5301 107.14C94.7501 105.46 95.2201 103.3 94.34 101.63C94.1498 101.218 93.8441 100.871 93.4601 100.63C92.1201 99.84 90.9801 101.21 90.7901 102.63C90.6942 103.77 90.8338 104.917 91.2001 106C90.37 105.52 89.3301 106.24 88.9501 107.22C88.6406 108.251 88.5756 109.34 88.7601 110.4C88.9601 112.4 89.1501 114.4 89.3501 116.4C88.7101 115.27 87.0401 115.7 86.4501 116.86C85.969 118.125 85.9163 119.512 86.3001 120.81C86.7094 122.577 86.7401 124.41 86.3901 126.19C84.5101 127.19 84.3101 124.67 82.8001 124.96C82.4241 125.074 82.0899 125.295 81.8391 125.598C81.5884 125.9 81.4322 126.269 81.3901 126.66C81.0201 128.99 81.7601 131.24 81.6901 133.43C80.2301 132.92 78.6001 134.76 78.9901 136.43C79.2301 137.48 79.9901 138.26 80.0801 139.43C80.1 139.656 80.0649 139.883 79.9778 140.092C79.8907 140.301 79.7542 140.485 79.5801 140.63C78.7701 141.21 78.2701 139.91 77.4401 140.63C77.2623 140.794 77.1247 140.996 77.038 141.222C76.9513 141.447 76.9178 141.689 76.9401 141.93C77.0201 143.3 78.1101 144.17 78.2401 145.52C78.2735 145.76 78.2542 146.004 78.1834 146.235C78.1126 146.467 77.992 146.68 77.8301 146.86C77.3301 147.38 76.8301 147.02 76.4101 146.96C75.3201 146.83 74.5701 148.4 74.7601 149.66C75.0854 150.854 75.613 151.984 76.3201 153C76.6694 153.526 76.8927 154.125 76.9725 154.751C77.0523 155.377 76.9864 156.013 76.7801 156.61C75.7801 155.84 75.4101 154.41 74.3501 153.73C74.1626 153.596 73.9449 153.51 73.7164 153.481C73.4878 153.451 73.2555 153.478 73.0401 153.56C72.1401 153.95 72.0401 155.2 72.0401 156.23C72.197 158.807 72.8776 161.325 74.0401 163.63C72.7301 164.84 71.2501 160.84 69.6901 161.9C69.4642 162.081 69.2879 162.316 69.1777 162.584C69.0675 162.851 69.027 163.142 69.0601 163.43C69.286 167.094 70.4687 170.635 72.4901 173.7C72.2594 173.405 71.9458 173.185 71.5894 173.069C71.2331 172.953 70.8502 172.947 70.4901 173.05C70.0559 173.233 69.6871 173.543 69.432 173.939C69.1768 174.335 69.0472 174.799 69.0601 175.27C69.0601 176.69 70.1401 177.73 70.8101 178.92C71.4801 180.11 71.4401 182.2 70.2401 182.43C69.0401 182.66 68.3901 180.67 67.2401 179.97C65.9301 179.14 64.2401 180.55 63.9301 182.25C63.7681 183.966 64.1644 185.688 65.0601 187.16C65.9743 188.581 66.631 190.151 67.0001 191.8L66.5301 192.1C64.6701 190.4 62.6901 192.44 63.3101 194.43C63.6056 195.244 63.784 196.096 63.8401 196.96L63.7801 198.24C63.7801 200.39 62.0201 202.3 60.1701 202.24C59.4338 202.14 58.6847 202.274 58.0293 202.624C57.374 202.974 56.8458 203.522 56.5201 204.19C55.7601 205.98 56.4101 208.44 58.0301 209.28C58.4906 209.504 58.9072 209.809 59.2601 210.18C60.7301 211.82 59.5801 212.91 59.2601 214.18C59.0658 214.995 59.1289 215.849 59.4405 216.626C59.7521 217.404 60.2969 218.065 61.0001 218.52C61.6545 218.882 62.3757 219.108 63.1199 219.184C63.8642 219.26 64.6161 219.183 65.3301 218.96C66.2302 218.611 67.1972 218.467 68.1601 218.54C69.9101 219.38 68.5401 221.63 70.2201 223.72C70.6991 224.247 71.2999 224.649 71.9701 224.89C72.7697 225.173 73.6414 225.179 74.4449 224.907C75.2484 224.635 75.9371 224.101 76.4001 223.39C76.8763 222.765 77.4929 222.262 78.2001 221.92C78.9401 221.6 79.7201 222.28 79.7001 223.21C79.5746 224.792 79.9227 226.376 80.7001 227.76C80.9286 228.164 81.2577 228.503 81.6553 228.743C82.053 228.983 82.5058 229.116 82.9701 229.13C84.7401 229.13 85.6201 227.02 86.3501 225.28C87.2501 223.14 88.9401 220.68 91.3501 222.98C91.9236 223.585 92.3032 224.348 92.4401 225.17C92.8001 227.01 94.7701 229.65 96.3601 228.49C97.6701 227.49 97.3001 224.8 99.1701 224.36C99.4496 224.303 99.7379 224.305 100.017 224.365C100.296 224.425 100.559 224.543 100.79 224.71C102.79 226.03 103.06 229.17 105.25 230.19C105.626 230.37 106.053 230.413 106.456 230.31C106.86 230.208 107.215 229.967 107.46 229.63C108.11 228.77 107.72 227.92 107.64 227.06C107.621 226.138 107.891 225.233 108.413 224.472C108.935 223.711 109.682 223.134 110.55 222.82C112.15 222.2 113.88 222.32 115.55 222.1C116.428 222.05 117.28 221.783 118.03 221.324C118.78 220.865 119.405 220.229 119.85 219.47C120.16 218.84 120.32 218.12 120.66 217.52C121.66 215.75 123.71 215.46 125.51 215.2C127.31 214.94 129.42 214.2 129.93 212.2C130.43 209.88 127.63 207.6 126 209Z" fill="#407BFF"/>
<g opacity="0.3">
<path d="M126 209L127.11 202.47C127.227 202.149 127.256 201.803 127.194 201.467C127.133 201.132 126.983 200.819 126.76 200.56C126.577 200.405 126.356 200.301 126.12 200.26C124.69 200.02 123.64 201.74 122.27 201.73C121.45 200.49 122.35 198.73 123.27 197.65C124.19 196.57 125.48 195.13 125.01 193.56C124.902 193.198 124.705 192.869 124.438 192.602C124.171 192.335 123.842 192.138 123.48 192.03C122.291 191.82 121.065 192.047 120.03 192.67C119.31 190.67 121.51 189.13 122.8 187.41C123.59 186.41 122.8 184.73 121.63 184.96L117.2 185.79C116.769 185.885 116.319 185.846 115.91 185.68C114.26 184.98 114.6 182.74 115.35 181.29C115.65 180.73 116 180.17 116.28 179.59C116.41 179.362 116.485 179.106 116.496 178.844C116.508 178.582 116.457 178.321 116.348 178.082C116.238 177.843 116.073 177.634 115.867 177.472C115.66 177.31 115.418 177.2 115.16 177.15C114.194 177.11 113.226 177.19 112.28 177.39C111.34 175.53 113.1 173.39 114.72 172.39C115.539 171.883 116.286 171.268 116.94 170.56C117.162 170.309 117.318 170.007 117.393 169.681C117.469 169.354 117.46 169.014 117.37 168.691C117.279 168.369 117.109 168.074 116.875 167.835C116.641 167.595 116.35 167.418 116.03 167.32L112.83 166.75C112.538 166.704 112.261 166.591 112.02 166.42C110.81 165.55 111.44 163.82 112.26 162.8C112.5 162.5 112.77 162.2 113.02 161.89C113.168 161.71 113.267 161.496 113.307 161.267C113.347 161.038 113.328 160.802 113.251 160.583C113.173 160.363 113.04 160.168 112.865 160.015C112.69 159.862 112.478 159.757 112.25 159.71L111.25 159.66C111.865 158.344 112.351 156.97 112.7 155.56C113.13 153.83 111.8 152.19 110.29 152.56L108.29 153.09C108.034 153.175 107.757 153.175 107.5 153.09C107.337 153.001 107.196 152.875 107.09 152.722C106.985 152.57 106.916 152.394 106.89 152.21C106.35 149.56 110.67 148.15 110.19 145.49C109.84 143.55 107.48 143.49 105.82 143.98C105.96 141.519 106.355 139.079 107 136.7C107.055 136.554 107.075 136.397 107.058 136.242C107.042 136.087 106.989 135.937 106.905 135.806C106.82 135.675 106.706 135.565 106.572 135.486C106.437 135.407 106.286 135.36 106.13 135.35L103.62 135.4C103.486 135.418 103.349 135.409 103.218 135.373C103.088 135.337 102.966 135.275 102.86 135.19C102.702 134.991 102.617 134.744 102.62 134.49C102.53 133.05 103.44 131.8 103.8 130.41C104.16 129.02 103.38 126.98 102.19 127.41C100.6 126.66 99.4901 127.81 99.0301 126.14C98.9486 125.834 98.9216 125.516 98.9501 125.2C99.1001 123.32 100.67 122.2 101.05 120.4C101.203 119.326 101.125 118.231 100.82 117.19C100.79 116.819 100.639 116.467 100.39 116.19C100.116 116.024 99.8088 115.921 99.4901 115.89C97.9801 115.43 97.8601 112.97 98.2801 111.21C98.7248 109.881 98.8615 108.469 98.6801 107.08C98.6505 106.931 98.5913 106.789 98.5057 106.664C98.4202 106.538 98.3102 106.431 98.1823 106.349C98.0543 106.266 97.9112 106.211 97.7613 106.185C97.6114 106.16 97.458 106.165 97.3101 106.2C96.6627 106.398 96.0587 106.717 95.5301 107.14C94.7501 105.46 95.2201 103.3 94.34 101.63C94.1498 101.218 93.8441 100.871 93.4601 100.63C92.1201 99.84 90.9801 101.21 90.7901 102.63C90.6942 103.77 90.8338 104.917 91.2001 106C90.37 105.52 89.3301 106.24 88.9501 107.22C88.6406 108.251 88.5756 109.34 88.7601 110.4C88.9601 112.4 89.1501 114.4 89.3501 116.4C88.7101 115.27 87.0401 115.7 86.4501 116.86C85.969 118.125 85.9163 119.512 86.3001 120.81C86.7094 122.577 86.7401 124.41 86.3901 126.19C84.5101 127.19 84.3101 124.67 82.8001 124.96C82.4241 125.074 82.0899 125.295 81.8391 125.598C81.5884 125.9 81.4322 126.269 81.3901 126.66C81.0201 128.99 81.7601 131.24 81.6901 133.43C80.2301 132.92 78.6001 134.76 78.9901 136.43C79.2301 137.48 79.9901 138.26 80.0801 139.43C80.1 139.656 80.0649 139.883 79.9778 140.092C79.8907 140.301 79.7542 140.485 79.5801 140.63C78.7701 141.21 78.2701 139.91 77.4401 140.63C77.2623 140.794 77.1247 140.996 77.038 141.222C76.9513 141.447 76.9178 141.689 76.9401 141.93C77.0201 143.3 78.1101 144.17 78.2401 145.52C78.2735 145.76 78.2542 146.004 78.1834 146.235C78.1126 146.467 77.992 146.68 77.8301 146.86C77.3301 147.38 76.8301 147.02 76.4101 146.96C75.3201 146.83 74.5701 148.4 74.7601 149.66C75.0854 150.854 75.613 151.984 76.3201 153C76.6694 153.526 76.8927 154.125 76.9725 154.751C77.0523 155.377 76.9864 156.013 76.7801 156.61C75.7801 155.84 75.4101 154.41 74.3501 153.73C74.1626 153.596 73.9449 153.51 73.7164 153.481C73.4878 153.451 73.2555 153.478 73.0401 153.56C72.1401 153.95 72.0401 155.2 72.0401 156.23C72.197 158.807 72.8776 161.325 74.0401 163.63C72.7301 164.84 71.2501 160.84 69.6901 161.9C69.4642 162.081 69.2879 162.316 69.1777 162.584C69.0675 162.851 69.027 163.142 69.0601 163.43C69.286 167.094 70.4687 170.635 72.4901 173.7C72.2594 173.405 71.9458 173.185 71.5894 173.069C71.2331 172.953 70.8502 172.947 70.4901 173.05C70.0559 173.233 69.6871 173.543 69.432 173.939C69.1768 174.335 69.0472 174.799 69.0601 175.27C69.0601 176.69 70.1401 177.73 70.8101 178.92C71.4801 180.11 71.4401 182.2 70.2401 182.43C69.0401 182.66 68.3901 180.67 67.2401 179.97C65.9301 179.14 64.2401 180.55 63.9301 182.25C63.7681 183.966 64.1644 185.688 65.0601 187.16C65.9743 188.581 66.631 190.151 67.0001 191.8L66.5301 192.1C64.6701 190.4 62.6901 192.44 63.3101 194.43C63.6056 195.244 63.784 196.096 63.8401 196.96L63.7801 198.24C63.7801 200.39 62.0201 202.3 60.1701 202.24C59.4338 202.14 58.6847 202.274 58.0293 202.624C57.374 202.974 56.8458 203.522 56.5201 204.19C55.7601 205.98 56.4101 208.44 58.0301 209.28C58.4906 209.504 58.9072 209.809 59.2601 210.18C60.7301 211.82 59.5801 212.91 59.2601 214.18C59.0658 214.995 59.1289 215.849 59.4405 216.626C59.7521 217.404 60.2969 218.065 61.0001 218.52C61.6545 218.882 62.3757 219.108 63.1199 219.184C63.8642 219.26 64.6161 219.183 65.3301 218.96C66.2302 218.611 67.1972 218.467 68.1601 218.54C69.9101 219.38 68.5401 221.63 70.2201 223.72C70.6991 224.247 71.2999 224.649 71.9701 224.89C72.7697 225.173 73.6414 225.179 74.4449 224.907C75.2484 224.635 75.9371 224.101 76.4001 223.39C76.8763 222.765 77.4929 222.262 78.2001 221.92C78.9401 221.6 79.7201 222.28 79.7001 223.21C79.5746 224.792 79.9227 226.376 80.7001 227.76C80.9286 228.164 81.2577 228.503 81.6553 228.743C82.053 228.983 82.5058 229.116 82.9701 229.13C84.7401 229.13 85.6201 227.02 86.3501 225.28C87.2501 223.14 88.9401 220.68 91.3501 222.98C91.9236 223.585 92.3032 224.348 92.4401 225.17C92.8001 227.01 94.7701 229.65 96.3601 228.49C97.6701 227.49 97.3001 224.8 99.1701 224.36C99.4496 224.303 99.7379 224.305 100.017 224.365C100.296 224.425 100.559 224.543 100.79 224.71C102.79 226.03 103.06 229.17 105.25 230.19C105.626 230.37 106.053 230.413 106.456 230.31C106.86 230.208 107.215 229.967 107.46 229.63C108.11 228.77 107.72 227.92 107.64 227.06C107.621 226.138 107.891 225.233 108.413 224.472C108.935 223.711 109.682 223.134 110.55 222.82C112.15 222.2 113.88 222.32 115.55 222.1C116.428 222.05 117.28 221.783 118.03 221.324C118.78 220.865 119.405 220.229 119.85 219.47C120.16 218.84 120.32 218.12 120.66 217.52C121.66 215.75 123.71 215.46 125.51 215.2C127.31 214.94 129.42 214.2 129.93 212.2C130.43 209.88 127.63 207.6 126 209Z" fill="black"/>
</g>
<path d="M165.24 188.89L152 190.78C152 190.78 151.92 227.78 151.45 232.34C150.98 236.9 144.67 241.45 144.67 241.45H169.49C163.08 230.44 165.24 188.89 165.24 188.89Z" fill="#263238"/>
<path d="M204 180.13L205.57 170.93C205.733 170.478 205.772 169.99 205.684 169.517C205.597 169.045 205.385 168.604 205.07 168.24C204.817 168.015 204.505 167.866 204.17 167.81C202.17 167.47 200.68 169.9 198.74 169.88C197.58 168.14 198.86 165.66 200.23 164.13C201.6 162.6 203.34 160.58 202.68 158.37C202.529 157.858 202.252 157.393 201.874 157.016C201.497 156.638 201.032 156.361 200.52 156.21C198.83 155.71 197.21 156.42 195.65 157.11C194.65 154.32 197.75 152.11 199.57 149.69C200.68 148.21 199.57 145.92 197.92 146.24L191.66 147.42C191.05 147.544 190.417 147.485 189.84 147.25C187.52 146.25 187.99 143.11 189.06 141.07C189.48 140.27 189.97 139.48 190.37 138.66C191.1 137.19 190.25 135.3 188.78 135.23C187.421 135.168 186.06 135.283 184.73 135.57C183.4 132.95 185.89 129.96 188.17 128.47C189.32 127.744 190.372 126.874 191.3 125.88C192.65 124.33 191.89 121.65 190.02 121.32L185.51 120.51C185.096 120.449 184.702 120.291 184.36 120.05C182.66 118.81 183.54 116.37 184.7 114.94C185.04 114.52 185.42 114.09 185.77 113.65C186.67 112.51 186.02 110.65 184.69 110.59L183.31 110.5C184.157 108.644 184.827 106.712 185.31 104.73C185.92 102.28 184.04 99.98 181.91 100.54L179.04 101.29C178.683 101.431 178.289 101.448 177.92 101.34C177.69 101.218 177.494 101.042 177.346 100.828C177.198 100.614 177.103 100.368 177.07 100.11C176.3 96.37 182.4 94.39 181.72 90.63C181.23 87.89 177.89 87.86 175.54 88.5C175.717 84.997 176.257 81.5218 177.15 78.13C177.222 77.9246 177.247 77.7053 177.222 77.489C177.197 77.2726 177.122 77.0648 177.005 76.8816C176.887 76.6983 176.729 76.5443 176.543 76.4314C176.357 76.3184 176.147 76.2496 175.93 76.23L172.4 76.31C172.209 76.3377 172.014 76.3253 171.828 76.2737C171.643 76.222 171.469 76.1322 171.32 76.01C171.097 75.7254 170.98 75.3716 170.99 75.01C170.86 73.01 172.14 71.21 172.65 69.25C173.16 67.29 172.06 64.42 170.38 65.03C168.13 63.97 166.58 65.59 165.92 63.23C165.805 62.8001 165.764 62.3536 165.8 61.91C166.03 59.27 168.23 57.62 168.8 55.14C169.015 53.6238 168.902 52.0791 168.47 50.61C168.416 50.1133 168.21 49.6454 167.88 49.27C167.49 49.0337 167.053 48.8837 166.6 48.83C164.47 48.19 164.3 44.72 164.9 42.25C165.35 40.36 165.9 38.16 165.45 36.42C165.411 36.2084 165.33 36.007 165.21 35.8283C165.09 35.6495 164.935 35.4973 164.754 35.381C164.573 35.2648 164.37 35.1869 164.158 35.1524C163.946 35.1178 163.729 35.1272 163.52 35.18C162.61 35.4562 161.761 35.9043 161.02 36.5C159.91 34.14 160.58 31.09 159.34 28.74C159.06 28.1785 158.631 27.7046 158.1 27.37C156.21 26.26 154.6 28.2 154.34 30.19C154.241 31.7581 154.462 33.33 154.99 34.81C153.82 34.13 152.34 35.15 151.8 36.53C151.371 37.9872 151.285 39.5241 151.55 41.02L152.37 49.48C151.46 47.89 149.12 48.48 148.29 50.13C147.46 51.78 147.69 53.84 148.07 55.7C148.48 57.7 148.86 61.26 148.2 63.27C145.55 64.68 145.27 61.13 143.14 61.55C142.603 61.7011 142.125 62.0114 141.768 62.4398C141.411 62.8682 141.192 63.3947 141.14 63.95C140.62 67.23 141.66 70.4 141.56 73.49C139.5 72.77 137.2 75.36 137.76 77.77C138.1 79.24 139.22 80.34 139.29 81.94C139.317 82.2595 139.266 82.5807 139.142 82.8766C139.019 83.1725 138.826 83.4343 138.58 83.64C137.45 84.45 136.75 82.64 135.58 83.59C135.327 83.8167 135.13 84.0992 135.005 84.4151C134.88 84.731 134.831 85.0716 134.86 85.41C134.98 87.35 136.51 88.57 136.7 90.48C136.746 90.8167 136.717 91.1592 136.617 91.4839C136.517 91.8086 136.347 92.1075 136.12 92.36C135.41 93.09 134.79 92.59 134.12 92.51C132.58 92.32 131.52 94.51 131.79 96.31C132.06 98.11 133.16 99.52 133.99 101.05C134.82 102.58 135.41 104.58 134.64 106.14C133.3 105.05 132.7 103.04 131.22 102.09C130.955 101.901 130.648 101.779 130.326 101.736C130.004 101.692 129.675 101.728 129.37 101.84C128.1 102.39 127.94 104.15 128.03 105.61C128.252 109.246 129.223 112.796 130.88 116.04C129.03 117.75 126.88 112.1 124.74 113.61C124.422 113.863 124.173 114.194 124.017 114.57C123.861 114.946 123.804 115.356 123.85 115.76C124.169 120.925 125.834 125.917 128.68 130.24C128.36 129.825 127.923 129.516 127.426 129.352C126.929 129.188 126.394 129.177 125.89 129.32C125.283 129.583 124.768 130.021 124.411 130.579C124.055 131.137 123.873 131.788 123.89 132.45C123.89 134.45 125.42 135.93 126.36 137.6C127.3 139.27 127.26 142.23 125.56 142.55C123.86 142.87 122.96 140.06 121.39 139.08C119.54 137.91 117.14 139.9 116.72 142.3C116.3 144.7 117.24 147.11 118.31 149.22C119.38 151.33 120.64 153.4 120.93 155.82L120.27 156.25C117.65 153.85 114.85 156.72 115.73 159.53C116.152 160.674 116.405 161.873 116.48 163.09L116.4 164.9C116.4 167.9 113.91 170.62 111.31 170.53C109.23 170.46 107.08 171.12 106.16 173.28C105.09 175.81 106 179.28 108.28 180.46C108.936 180.777 109.529 181.211 110.03 181.74C112.09 184.05 110.47 185.59 109.95 187.41C109.681 188.548 109.767 189.742 110.198 190.829C110.629 191.917 111.384 192.845 112.36 193.49C113.283 194.002 114.301 194.321 115.351 194.428C116.402 194.534 117.463 194.426 118.47 194.11C119.744 193.623 121.11 193.422 122.47 193.52C124.95 194.71 123.02 197.88 125.38 200.82C126.055 201.564 126.904 202.131 127.85 202.47C130.65 203.36 132.56 202.25 134.1 200.36C134.773 199.482 135.639 198.771 136.63 198.28C137.68 197.84 138.78 198.8 138.75 200.1C138.558 202.326 139.027 204.56 140.1 206.52C140.423 207.089 140.888 207.565 141.448 207.903C142.008 208.241 142.646 208.429 143.3 208.45C145.8 208.39 147.04 205.45 148.07 203.02C149.33 200.02 151.72 196.54 155.07 199.78C155.889 200.627 156.427 201.706 156.61 202.87C157.12 205.47 159.89 209.19 162.14 207.55C163.99 206.2 163.47 202.35 166.14 201.73C166.533 201.646 166.939 201.647 167.332 201.731C167.725 201.816 168.096 201.982 168.42 202.22C171.21 204.09 171.61 208.51 174.7 209.94C175.229 210.199 175.834 210.261 176.405 210.117C176.976 209.972 177.478 209.63 177.82 209.15C178.74 207.94 178.19 206.75 178.08 205.54C177.84 202.8 179.93 200.42 182.18 199.54C184.43 198.66 186.87 198.84 189.18 198.54C191.49 198.24 194.07 197.22 195.25 194.83C195.69 193.95 195.92 192.94 196.39 192.08C197.77 189.58 200.7 189.18 203.23 188.81C205.76 188.44 208.74 187.41 209.46 184.57C210.27 181.32 206.33 178.11 204 180.13Z" fill="#407BFF"/>
<path d="M265.66 208.66L255.31 210.14C255.31 210.14 255.25 239.14 254.88 242.72C254.51 246.3 249.56 249.86 249.56 249.86H269C264 241.23 265.66 208.66 265.66 208.66Z" fill="#263238"/>
<path d="M296 201.8L297.23 194.59C297.356 194.234 297.386 193.852 297.315 193.481C297.245 193.11 297.078 192.765 296.83 192.48C296.634 192.302 296.391 192.184 296.13 192.14C294.55 191.87 293.39 193.78 291.87 193.76C290.97 192.4 291.97 190.45 293.04 189.25C294.11 188.05 295.48 186.47 294.96 184.74C294.841 184.34 294.624 183.976 294.329 183.681C294.034 183.386 293.67 183.169 293.27 183.05C291.953 182.809 290.593 183.062 289.45 183.76C288.66 181.56 291.09 179.84 292.52 177.94C293.39 176.78 292.52 174.94 291.23 175.23L286.32 176.16C285.844 176.257 285.35 176.212 284.9 176.03C283.08 175.25 283.45 172.78 284.29 171.18C284.61 170.56 285 169.94 285.29 169.29C285.432 169.038 285.511 168.756 285.522 168.467C285.533 168.178 285.475 167.891 285.353 167.629C285.231 167.367 285.048 167.138 284.82 166.961C284.591 166.784 284.324 166.663 284.04 166.61C282.973 166.561 281.905 166.649 280.86 166.87C279.86 164.82 281.77 162.48 283.55 161.3C284.458 160.75 285.286 160.077 286.01 159.3C287.07 158.09 286.48 155.99 285.01 155.73L281.47 155.1C281.146 155.047 280.838 154.92 280.57 154.73C279.24 153.73 279.93 151.85 280.84 150.73C281.11 150.4 281.4 150.07 281.68 149.73C281.845 149.533 281.955 149.296 282 149.043C282.046 148.79 282.024 148.53 281.939 148.288C281.853 148.046 281.706 147.83 281.511 147.662C281.317 147.494 281.082 147.38 280.83 147.33L279.75 147.26C280.424 145.807 280.96 144.294 281.35 142.74C281.83 140.82 280.35 139.02 278.68 139.46L276.43 140.05C276.143 140.139 275.837 140.139 275.55 140.05C275.366 139.95 275.21 139.807 275.095 139.633C274.98 139.458 274.909 139.258 274.89 139.05C274.29 136.12 279.06 134.56 278.53 131.62C278.15 129.47 275.53 129.44 273.69 129.95C273.83 127.203 274.255 124.479 274.96 121.82C275.016 121.656 275.033 121.481 275.01 121.309C274.987 121.137 274.925 120.972 274.828 120.828C274.731 120.684 274.603 120.564 274.452 120.478C274.302 120.391 274.133 120.341 273.96 120.33L271.2 120.39C271.05 120.414 270.897 120.406 270.75 120.366C270.604 120.327 270.467 120.256 270.35 120.16C270.18 119.939 270.089 119.668 270.09 119.39C269.99 117.79 270.99 116.39 271.4 114.87C271.81 113.35 270.93 111.08 269.61 111.56C267.85 110.73 266.61 112 266.12 110.15C266.034 109.824 266.004 109.486 266.03 109.15C266.2 107.07 267.93 105.78 268.35 103.84C268.522 102.652 268.437 101.442 268.1 100.29C268.045 99.9178 267.881 99.5701 267.63 99.29C267.327 99.1019 266.985 98.9856 266.63 98.95C264.96 98.44 264.83 95.72 265.29 93.78C265.782 92.3132 265.932 90.7537 265.73 89.22C265.702 89.0526 265.639 88.8927 265.547 88.7503C265.454 88.608 265.334 88.4862 265.192 88.3924C265.05 88.2986 264.891 88.235 264.724 88.2053C264.557 88.1757 264.385 88.1806 264.22 88.22C263.494 88.4178 262.814 88.7577 262.22 89.22C261.35 87.37 261.87 84.98 260.9 83.14C260.67 82.6989 260.325 82.3289 259.9 82.07C258.42 81.19 257.15 82.72 256.95 84.27C256.875 85.5019 257.049 86.7363 257.46 87.9C256.54 87.37 255.38 88.16 254.96 89.25C254.627 90.3895 254.559 91.59 254.76 92.76C254.98 94.97 255.19 97.18 255.41 99.39C254.7 98.14 252.86 98.62 252.2 99.9C251.672 101.3 251.612 102.833 252.03 104.27C252.486 106.22 252.524 108.244 252.14 110.21C250.06 111.3 249.84 108.53 248.14 108.85C247.721 108.969 247.347 109.213 247.069 109.548C246.79 109.884 246.62 110.296 246.58 110.73C246.17 113.31 246.99 115.79 246.91 118.21C245.3 117.64 243.49 119.68 243.91 121.56C244.18 122.71 245.06 123.56 245.11 124.84C245.133 125.09 245.095 125.341 244.999 125.573C244.903 125.804 244.752 126.009 244.56 126.17C243.67 126.8 243.12 125.37 242.2 126.17C242.003 126.347 241.85 126.568 241.753 126.814C241.656 127.06 241.617 127.326 241.64 127.59C241.73 129.12 242.93 130.07 243.09 131.59C243.12 131.855 243.095 132.124 243.016 132.378C242.937 132.633 242.805 132.869 242.63 133.07C242.07 133.64 241.58 133.24 241.06 133.18C239.85 133.03 239.06 134.77 239.24 136.18C239.59 137.509 240.172 138.765 240.96 139.89C241.344 140.474 241.589 141.138 241.678 141.831C241.766 142.524 241.695 143.228 241.47 143.89C240.47 143.03 239.95 141.45 238.79 140.71C238.584 140.559 238.343 140.462 238.089 140.429C237.836 140.396 237.578 140.427 237.34 140.52C236.34 140.94 236.22 142.33 236.34 143.52C236.513 146.371 237.272 149.156 238.57 151.7C237.12 153.03 235.48 148.61 233.76 149.78C233.511 149.981 233.317 150.24 233.195 150.536C233.072 150.831 233.026 151.152 233.06 151.47C233.372 155.493 234.731 159.364 237 162.7C236.748 162.376 236.405 162.135 236.015 162.007C235.625 161.879 235.205 161.869 234.81 161.98C234.329 162.184 233.921 162.527 233.637 162.966C233.354 163.404 233.209 163.918 233.22 164.44C233.22 166 234.41 167.16 235.15 168.44C235.89 169.72 235.86 172.07 234.53 172.32C233.2 172.57 232.53 170.37 231.26 169.6C229.81 168.68 227.93 170.25 227.6 172.12C227.425 174.017 227.864 175.92 228.85 177.55C229.834 179.138 230.529 180.889 230.9 182.72L230.38 183.05C228.38 181.18 226.14 183.43 226.82 185.63C227.155 186.525 227.354 187.466 227.41 188.42L227.35 189.84C227.35 192.21 225.4 194.32 223.35 194.25C221.72 194.2 220.03 194.71 219.35 196.41C218.51 198.41 219.23 201.1 221.01 202.04C221.525 202.285 221.99 202.624 222.38 203.04C224 204.85 222.73 206.04 222.32 207.49C222.11 208.384 222.179 209.321 222.519 210.174C222.859 211.027 223.453 211.756 224.22 212.26C224.942 212.661 225.739 212.91 226.561 212.993C227.382 213.076 228.213 212.989 229 212.74C229.995 212.363 231.059 212.206 232.12 212.28C234.06 213.21 232.55 215.7 234.4 218C234.928 218.586 235.595 219.03 236.34 219.29C237.223 219.604 238.187 219.613 239.076 219.313C239.964 219.014 240.727 218.425 241.24 217.64C241.768 216.945 242.453 216.387 243.24 216.01C244.06 215.66 244.92 216.42 244.9 217.44C244.753 219.175 245.122 220.914 245.96 222.44C246.213 222.887 246.577 223.262 247.017 223.528C247.456 223.794 247.957 223.943 248.47 223.96C250.47 223.91 251.4 221.63 252.21 219.71C253.21 217.34 255.07 214.63 257.72 217.16C258.356 217.831 258.774 218.678 258.92 219.59C259.32 221.59 261.49 224.59 263.25 223.26C264.71 222.2 264.3 219.18 266.37 218.69C266.677 218.628 266.993 218.63 267.299 218.696C267.606 218.761 267.895 218.888 268.15 219.07C270.34 220.54 270.66 224.01 273.08 225.13C273.497 225.324 273.969 225.369 274.415 225.256C274.862 225.143 275.255 224.88 275.53 224.51C276.24 223.51 275.81 222.63 275.73 221.68C275.705 220.66 276.002 219.659 276.578 218.817C277.154 217.975 277.981 217.336 278.94 216.99C280.7 216.3 282.61 216.44 284.46 216.19C285.431 216.137 286.374 215.845 287.205 215.339C288.035 214.833 288.728 214.129 289.22 213.29C289.56 212.6 289.74 211.8 290.11 211.13C291.19 209.13 293.49 208.85 295.47 208.57C297.45 208.29 299.79 207.47 300.35 205.24C301 202.73 297.86 200.21 296 201.8Z" fill="#407BFF"/>
<g opacity="0.2">
<path d="M296 201.8L297.23 194.59C297.356 194.234 297.386 193.852 297.315 193.481C297.245 193.11 297.078 192.765 296.83 192.48C296.634 192.302 296.391 192.184 296.13 192.14C294.55 191.87 293.39 193.78 291.87 193.76C290.97 192.4 291.97 190.45 293.04 189.25C294.11 188.05 295.48 186.47 294.96 184.74C294.841 184.34 294.624 183.976 294.329 183.681C294.034 183.386 293.67 183.169 293.27 183.05C291.953 182.809 290.593 183.062 289.45 183.76C288.66 181.56 291.09 179.84 292.52 177.94C293.39 176.78 292.52 174.94 291.23 175.23L286.32 176.16C285.844 176.257 285.35 176.212 284.9 176.03C283.08 175.25 283.45 172.78 284.29 171.18C284.61 170.56 285 169.94 285.29 169.29C285.432 169.038 285.511 168.756 285.522 168.467C285.533 168.178 285.475 167.891 285.353 167.629C285.231 167.367 285.048 167.138 284.82 166.961C284.591 166.784 284.324 166.663 284.04 166.61C282.973 166.561 281.905 166.649 280.86 166.87C279.86 164.82 281.77 162.48 283.55 161.3C284.458 160.75 285.286 160.077 286.01 159.3C287.07 158.09 286.48 155.99 285.01 155.73L281.47 155.1C281.146 155.047 280.838 154.92 280.57 154.73C279.24 153.73 279.93 151.85 280.84 150.73C281.11 150.4 281.4 150.07 281.68 149.73C281.845 149.533 281.955 149.296 282 149.043C282.046 148.79 282.024 148.53 281.939 148.288C281.853 148.046 281.706 147.83 281.511 147.662C281.317 147.494 281.082 147.38 280.83 147.33L279.75 147.26C280.424 145.807 280.96 144.294 281.35 142.74C281.83 140.82 280.35 139.02 278.68 139.46L276.43 140.05C276.143 140.139 275.837 140.139 275.55 140.05C275.366 139.95 275.21 139.807 275.095 139.633C274.98 139.458 274.909 139.258 274.89 139.05C274.29 136.12 279.06 134.56 278.53 131.62C278.15 129.47 275.53 129.44 273.69 129.95C273.83 127.203 274.255 124.479 274.96 121.82C275.016 121.656 275.033 121.481 275.01 121.309C274.987 121.137 274.925 120.972 274.828 120.828C274.731 120.684 274.603 120.564 274.452 120.478C274.302 120.391 274.133 120.341 273.96 120.33L271.2 120.39C271.05 120.414 270.897 120.406 270.75 120.366C270.604 120.327 270.467 120.256 270.35 120.16C270.18 119.939 270.089 119.668 270.09 119.39C269.99 117.79 270.99 116.39 271.4 114.87C271.81 113.35 270.93 111.08 269.61 111.56C267.85 110.73 266.61 112 266.12 110.15C266.034 109.824 266.004 109.486 266.03 109.15C266.2 107.07 267.93 105.78 268.35 103.84C268.522 102.652 268.437 101.442 268.1 100.29C268.045 99.9178 267.881 99.5701 267.63 99.29C267.327 99.1019 266.985 98.9856 266.63 98.95C264.96 98.44 264.83 95.72 265.29 93.78C265.782 92.3132 265.932 90.7537 265.73 89.22C265.702 89.0526 265.639 88.8927 265.547 88.7503C265.454 88.608 265.334 88.4862 265.192 88.3924C265.05 88.2986 264.891 88.235 264.724 88.2053C264.557 88.1757 264.385 88.1806 264.22 88.22C263.494 88.4178 262.814 88.7577 262.22 89.22C261.35 87.37 261.87 84.98 260.9 83.14C260.67 82.6989 260.325 82.3289 259.9 82.07C258.42 81.19 257.15 82.72 256.95 84.27C256.875 85.5019 257.049 86.7363 257.46 87.9C256.54 87.37 255.38 88.16 254.96 89.25C254.627 90.3895 254.559 91.59 254.76 92.76C254.98 94.97 255.19 97.18 255.41 99.39C254.7 98.14 252.86 98.62 252.2 99.9C251.672 101.3 251.612 102.833 252.03 104.27C252.486 106.22 252.524 108.244 252.14 110.21C250.06 111.3 249.84 108.53 248.14 108.85C247.721 108.969 247.347 109.213 247.069 109.548C246.79 109.884 246.62 110.296 246.58 110.73C246.17 113.31 246.99 115.79 246.91 118.21C245.3 117.64 243.49 119.68 243.91 121.56C244.18 122.71 245.06 123.56 245.11 124.84C245.133 125.09 245.095 125.341 244.999 125.573C244.903 125.804 244.752 126.009 244.56 126.17C243.67 126.8 243.12 125.37 242.2 126.17C242.003 126.347 241.85 126.568 241.753 126.814C241.656 127.06 241.617 127.326 241.64 127.59C241.73 129.12 242.93 130.07 243.09 131.59C243.12 131.855 243.095 132.124 243.016 132.378C242.937 132.633 242.805 132.869 242.63 133.07C242.07 133.64 241.58 133.24 241.06 133.18C239.85 133.03 239.06 134.77 239.24 136.18C239.59 137.509 240.172 138.765 240.96 139.89C241.344 140.474 241.589 141.138 241.678 141.831C241.766 142.524 241.695 143.228 241.47 143.89C240.47 143.03 239.95 141.45 238.79 140.71C238.584 140.559 238.343 140.462 238.089 140.429C237.836 140.396 237.578 140.427 237.34 140.52C236.34 140.94 236.22 142.33 236.34 143.52C236.513 146.371 237.272 149.156 238.57 151.7C237.12 153.03 235.48 148.61 233.76 149.78C233.511 149.981 233.317 150.24 233.195 150.536C233.072 150.831 233.026 151.152 233.06 151.47C233.372 155.493 234.731 159.364 237 162.7C236.748 162.376 236.405 162.135 236.015 162.007C235.625 161.879 235.205 161.869 234.81 161.98C234.329 162.184 233.921 162.527 233.637 162.966C233.354 163.404 233.209 163.918 233.22 164.44C233.22 166 234.41 167.16 235.15 168.44C235.89 169.72 235.86 172.07 234.53 172.32C233.2 172.57 232.53 170.37 231.26 169.6C229.81 168.68 227.93 170.25 227.6 172.12C227.425 174.017 227.864 175.92 228.85 177.55C229.834 179.138 230.529 180.889 230.9 182.72L230.38 183.05C228.38 181.18 226.14 183.43 226.82 185.63C227.155 186.525 227.354 187.466 227.41 188.42L227.35 189.84C227.35 192.21 225.4 194.32 223.35 194.25C221.72 194.2 220.03 194.71 219.35 196.41C218.51 198.41 219.23 201.1 221.01 202.04C221.525 202.285 221.99 202.624 222.38 203.04C224 204.85 222.73 206.04 222.32 207.49C222.11 208.384 222.179 209.321 222.519 210.174C222.859 211.027 223.453 211.756 224.22 212.26C224.942 212.661 225.739 212.91 226.561 212.993C227.382 213.076 228.213 212.989 229 212.74C229.995 212.363 231.059 212.206 232.12 212.28C234.06 213.21 232.55 215.7 234.4 218C234.928 218.586 235.595 219.03 236.34 219.29C237.223 219.604 238.187 219.613 239.076 219.313C239.964 219.014 240.727 218.425 241.24 217.64C241.768 216.945 242.453 216.387 243.24 216.01C244.06 215.66 244.92 216.42 244.9 217.44C244.753 219.175 245.122 220.914 245.96 222.44C246.213 222.887 246.577 223.262 247.017 223.528C247.456 223.794 247.957 223.943 248.47 223.96C250.47 223.91 251.4 221.63 252.21 219.71C253.21 217.34 255.07 214.63 257.72 217.16C258.356 217.831 258.774 218.678 258.92 219.59C259.32 221.59 261.49 224.59 263.25 223.26C264.71 222.2 264.3 219.18 266.37 218.69C266.677 218.628 266.993 218.63 267.299 218.696C267.606 218.761 267.895 218.888 268.15 219.07C270.34 220.54 270.66 224.01 273.08 225.13C273.497 225.324 273.969 225.369 274.415 225.256C274.862 225.143 275.255 224.88 275.53 224.51C276.24 223.51 275.81 222.63 275.73 221.68C275.705 220.66 276.002 219.659 276.578 218.817C277.154 217.975 277.981 217.336 278.94 216.99C280.7 216.3 282.61 216.44 284.46 216.19C285.431 216.137 286.374 215.845 287.205 215.339C288.035 214.833 288.728 214.129 289.22 213.29C289.56 212.6 289.74 211.8 290.11 211.13C291.19 209.13 293.49 208.85 295.47 208.57C297.45 208.29 299.79 207.47 300.35 205.24C301 202.73 297.86 200.21 296 201.8Z" fill="black"/>
</g>
<path d="M49.1801 275.63C49.1801 275.63 98.5101 240.16 102.69 237.56C106.87 234.96 213.89 226.94 221.41 228.86C228.93 230.78 368.57 275.1 371.08 275.93C373.59 276.76 49.1801 275.63 49.1801 275.63Z" fill="#407BFF"/>
<path opacity="0.2" d="M49.1801 275.63C49.1801 275.63 98.5101 240.16 102.69 237.56C106.87 234.96 213.89 226.94 221.41 228.86C228.93 230.78 368.57 275.1 371.08 275.93C373.59 276.76 49.1801 275.63 49.1801 275.63Z" fill="black"/>
<path d="M209.43 218.89C206.708 220.138 204.371 222.092 202.66 224.55C201.342 222.068 200.53 219.348 200.27 216.55C198.318 219.241 197.513 222.596 198.03 225.88L190.55 221.19C193.04 224.444 195.06 228.033 196.55 231.85L208.68 232.85C207.591 228.221 207.852 223.376 209.43 218.89Z" fill="#407BFF"/>
<g opacity="0.2">
<path d="M209.43 218.89C206.708 220.138 204.371 222.092 202.66 224.55C201.342 222.068 200.53 219.348 200.27 216.55C198.318 219.241 197.513 222.596 198.03 225.88L190.55 221.19C193.04 224.444 195.06 228.033 196.55 231.85L208.68 232.85C207.591 228.221 207.852 223.376 209.43 218.89Z" fill="black"/>
</g>
</svg>
